<svg width="372" height="432" viewBox="0 0 372 432" fill="none" xmlns="http://www.w3.org/2000/svg">
<g filter="url(#filter0_b_545_6009)">
<rect y="25" width="372" height="407" rx="8" fill="white" fill-opacity="0.15"/>
</g>
<path d="M334.798 284.06C334.798 284.122 269.496 284.176 188.962 284.176C108.427 284.176 43.0986 284.122 43.0986 284.06C43.0986 283.997 108.387 283.938 188.962 283.938C269.537 283.938 334.798 283.992 334.798 284.06Z" fill="#263238"/>
<path d="M72.5996 135.751L72.5996 278.876C72.5996 281.739 74.9205 284.06 77.7834 284.06H287.696C290.559 284.06 292.88 281.739 292.88 278.876V135.751C292.88 132.888 290.559 130.567 287.696 130.567H77.7834C74.9205 130.567 72.5996 132.888 72.5996 135.751Z" fill="#263238"/>
<path d="M87.6709 135.405L87.6709 279.221H271.629V135.405H87.6709Z" fill="#EBEBEB"/>
<path d="M281.808 201.42C282.974 201.42 284.114 201.764 285.084 202.412C286.054 203.059 286.81 203.979 287.256 205.056C287.703 206.133 287.82 207.318 287.593 208.462C287.365 209.605 286.804 210.656 285.98 211.48C285.155 212.305 284.105 212.866 282.961 213.093C281.818 213.32 280.633 213.203 279.556 212.757C278.479 212.31 277.558 211.554 276.911 210.584C276.264 209.615 275.919 208.475 275.92 207.309C275.921 205.747 276.542 204.25 277.646 203.146C278.75 202.042 280.247 201.422 281.808 201.42Z" fill="#455A64"/>
<path d="M78.9414 184.743V229.879C78.9414 230.182 79.1866 230.427 79.489 230.427H80.8264C81.1288 230.427 81.374 230.182 81.374 229.879V184.743C81.374 184.44 81.1288 184.195 80.8264 184.195H79.489C79.1866 184.195 78.9414 184.44 78.9414 184.743Z" fill="#455A64"/>
<path d="M152.052 164.008C151.352 169.021 151.886 173.226 148.91 177.176C147.739 178.724 146.123 180.048 145.594 181.92C145.221 183.226 145.436 184.644 145.086 185.959C144.256 189.065 140.764 190.447 138.229 192.449C135.015 194.966 133.099 198.853 132.192 202.839C131.285 206.824 131.294 210.949 131.321 215.033C131.321 216.774 131.474 218.789 132.892 219.799C133.871 220.495 135.159 220.481 136.357 220.441L159.408 219.678C160.099 219.656 160.858 219.602 161.342 219.117C161.705 218.666 161.915 218.111 161.944 217.533C163.942 204.667 165.937 191.801 167.926 178.935L152.052 164.008Z" fill="#263238"/>
<path d="M214.994 177.382C211.996 165.044 217.502 166.611 215.891 154.017C215.487 150.875 213.023 136.334 211.852 133.372C208.778 125.693 196.009 110.263 180.615 121.021C179.834 123.067 181.665 130.037 183.263 131.536C184.86 133.035 192.077 128.125 193.424 129.849C194.483 131.195 195.08 132.847 195.977 134.31C196.803 135.656 197.88 136.841 198.594 138.246C199.42 139.88 199.712 141.729 199.94 143.546C200.672 149.349 200.887 155.305 199.523 160.992C197.961 167.504 194.398 173.374 192.522 179.801C190.752 185.887 190.53 192.319 191.875 198.512C192.079 199.775 192.549 200.981 193.253 202.049C194.905 204.293 198.159 204.822 200.825 204.032C203.491 203.243 205.708 201.384 207.786 199.589C209.612 197.983 211.435 196.313 212.673 194.226C214.02 191.946 214.612 189.289 215.178 186.717C215.537 185.307 215.746 183.863 215.801 182.409C215.736 180.707 215.464 179.019 214.994 177.382Z" fill="#263238"/>
<path d="M194.321 187.759C194.366 183.019 194.321 181.924 194.321 181.964C194.321 182.005 204.321 180.281 206.363 167.23C207.377 160.736 207.032 150.099 206.462 141.401C205.95 133.574 200.744 123.983 192.948 124.826L168.605 131.033C167.461 131.158 166.407 131.706 165.648 132.57C164.889 133.434 164.482 134.552 164.507 135.701L167.236 188.023C167.402 188.481 167.655 188.903 167.981 189.267C173.586 196.641 183.038 200.626 190.61 195.29C192.694 193.294 194.009 190.627 194.321 187.759Z" fill="#FFBE9D"/>
<path d="M201.453 150.265C201.458 150.701 201.292 151.122 200.991 151.438C200.69 151.755 200.277 151.941 199.841 151.957C199.629 151.975 199.414 151.95 199.211 151.883C199.009 151.817 198.821 151.71 198.66 151.57C198.499 151.43 198.367 151.259 198.274 151.067C198.18 150.875 198.125 150.667 198.113 150.453C198.107 150.017 198.272 149.596 198.572 149.28C198.872 148.964 199.284 148.778 199.72 148.761C199.933 148.744 200.148 148.769 200.351 148.835C200.554 148.902 200.742 149.008 200.903 149.148C201.065 149.288 201.196 149.459 201.291 149.651C201.385 149.843 201.44 150.052 201.453 150.265Z" fill="#263238"/>
<path d="M184.384 150.638C184.389 151.074 184.223 151.495 183.923 151.811C183.622 152.127 183.209 152.313 182.773 152.33C182.56 152.346 182.346 152.32 182.143 152.253C181.941 152.185 181.753 152.079 181.592 151.938C181.432 151.798 181.3 151.627 181.206 151.435C181.112 151.243 181.057 151.035 181.045 150.822C181.041 150.385 181.207 149.965 181.508 149.649C181.809 149.333 182.22 149.147 182.656 149.13C182.869 149.112 183.084 149.137 183.287 149.204C183.49 149.271 183.678 149.377 183.839 149.518C184 149.659 184.132 149.83 184.225 150.022C184.319 150.215 184.373 150.424 184.384 150.638Z" fill="#263238"/>
<path d="M186.004 148.21C185.726 148.29 184.536 147.258 182.553 146.688C180.569 146.118 178.904 146.298 178.738 146.091C178.657 145.992 178.976 145.799 179.707 145.701C180.755 145.594 181.814 145.697 182.822 146.001C183.808 146.27 184.726 146.744 185.515 147.393C186.018 147.855 186.139 148.178 186.004 148.21Z" fill="#263238"/>
<path d="M204.055 145.961C203.871 146.185 202.305 146.006 200.348 146.661C198.391 147.316 197.121 148.402 196.865 148.322C196.74 148.29 196.892 147.949 197.444 147.455C198.246 146.774 199.175 146.259 200.178 145.938C201.141 145.603 202.165 145.477 203.18 145.57C203.867 145.66 204.145 145.858 204.055 145.961Z" fill="#263238"/>
<path d="M193.037 160.659C193.037 160.556 194.146 160.359 195.959 160.125C196.408 160.076 196.856 159.982 196.933 159.676C197.009 159.371 196.843 158.851 196.623 158.33L195.254 154.829C193.356 149.848 191.978 145.754 192.18 145.678C192.382 145.602 194.083 149.578 195.981 154.56C196.43 155.79 196.879 156.961 197.292 158.079C197.467 158.604 197.767 159.196 197.534 159.874C197.469 160.037 197.367 160.183 197.236 160.3C197.105 160.418 196.949 160.504 196.78 160.552C196.525 160.621 196.263 160.657 195.999 160.659C194.177 160.749 193.042 160.758 193.037 160.659Z" fill="#263238"/>
<path d="M194.321 181.965C188.171 182.074 182.111 180.474 176.817 177.342C176.817 177.342 181.234 186.363 194.29 185.115L194.321 181.965Z" fill="#EB996E"/>
<path d="M186.494 143.039C186.319 143.528 184.519 143.299 182.405 143.56C180.291 143.82 178.586 144.399 178.307 143.959C178.182 143.753 178.478 143.29 179.165 142.815C180.077 142.218 181.119 141.849 182.203 141.738C183.284 141.606 184.38 141.733 185.403 142.106C186.18 142.42 186.57 142.801 186.494 143.039Z" fill="#263238"/>
<path d="M205.141 142.842C204.76 143.25 203.252 142.842 201.443 142.815C199.635 142.788 198.104 143.098 197.75 142.671C197.597 142.46 197.835 142.052 198.504 141.661C199.429 141.176 200.466 140.944 201.511 140.988C202.548 140.99 203.567 141.271 204.459 141.801C205.092 142.222 205.312 142.64 205.141 142.842Z" fill="#263238"/>
<path d="M186.454 124.544C186.307 124.276 186.107 124.04 185.866 123.852C182.001 120.459 176.239 119.62 171.36 121.245C166.481 122.87 163.075 129.041 160.768 133.637C158.901 137.353 156.868 142.761 156.778 146.93C156.168 150.691 156.042 150.866 154.844 154.479C153.466 158.64 151.487 162.814 151.895 167.176C152.16 170.062 153.47 172.867 153.111 175.739C152.752 178.612 150.719 181.125 150.1 184.015C149.696 185.874 149.898 187.812 150.068 189.684C150.271 192.133 150.655 194.563 151.217 196.955C151.278 197.309 151.433 197.641 151.666 197.915C151.966 198.177 152.325 198.364 152.712 198.458C158.968 200.527 165.517 202.623 172.011 201.631C172.479 201.6 172.928 201.433 173.303 201.151C173.358 201.099 173.402 201.036 173.434 200.967C175.256 196.977 168.402 191.798 168.2 187.368C168.007 183.015 167.639 178.203 170.548 174.958C173.043 172.18 173.627 168.98 170.997 161.526C170.447 159.994 170.139 158.386 170.085 156.759C170.085 156.553 170.085 156.346 170.085 156.14C170.265 151.203 174.753 147.752 178.115 144.139C182.788 139.082 185.739 132.674 186.543 125.836C186.631 125.405 186.6 124.958 186.454 124.544Z" fill="#263238"/>
<path d="M186.202 125.405C187.391 127.793 190.192 128.785 192.669 129.768C195.351 130.829 197.938 132.115 200.402 133.614C201.502 134.23 202.501 135.011 203.364 135.93C204.58 137.321 205.195 139.13 205.743 140.898C206.458 143.211 207.107 145.54 207.691 147.886C209.405 143.349 209.885 138.264 208.517 133.61C207.148 128.955 203.804 124.808 199.32 122.955C194.837 121.101 189.272 121.801 185.708 125.091" fill="#263238"/>
<path d="M152.91 166.826C152.805 166.098 152.758 165.363 152.77 164.627C152.8 162.123 153.346 159.651 154.375 157.368C155.404 155.084 156.893 153.037 158.749 151.356C161.244 149.067 164.556 147.343 167.868 145.377C171.023 143.579 173.85 141.259 176.23 138.515C177.253 137.308 178.191 136.032 179.039 134.696C179.767 133.526 180.419 132.31 180.992 131.056C181.83 129.242 182.485 127.349 182.948 125.405C183.132 124.719 183.218 124.176 183.299 123.812L183.384 123.395C183.391 123.347 183.405 123.3 183.424 123.256C183.428 123.303 183.428 123.351 183.424 123.399C183.424 123.507 183.388 123.646 183.361 123.821C183.298 124.185 183.227 124.719 183.056 125.423C182.622 127.383 181.987 129.293 181.162 131.123C180.594 132.388 179.947 133.616 179.223 134.799C178.376 136.148 177.436 137.436 176.409 138.654C175.268 139.993 174.012 141.23 172.657 142.352C171.196 143.551 169.641 144.63 168.008 145.579C164.682 147.55 161.388 149.26 158.91 151.513C156.699 153.483 155.006 155.968 153.982 158.748C153.297 160.62 152.919 162.59 152.86 164.582C152.86 165.291 152.86 165.839 152.887 166.211L152.91 166.633C152.92 166.697 152.92 166.762 152.91 166.826Z" fill="#455A64"/>
<path d="M153.152 174.106C153.136 174.055 153.127 174.002 153.125 173.949C153.125 173.836 153.089 173.684 153.062 173.5C153.004 173.096 152.945 172.495 152.896 171.705C152.751 169.507 152.921 167.301 153.403 165.152C153.748 163.669 154.291 162.239 155.019 160.902C155.869 159.371 156.969 157.992 158.273 156.822C159.703 155.533 161.222 154.347 162.819 153.272C164.453 152.128 166.181 150.988 167.823 149.659C170.902 147.137 173.62 144.204 175.902 140.943C177.772 138.288 179.468 135.515 180.978 132.64C182.284 130.194 183.267 128.152 183.944 126.779C184.281 126.092 184.541 125.553 184.725 125.172L184.932 124.755C184.954 124.706 184.981 124.659 185.013 124.615C184.999 124.667 184.979 124.716 184.954 124.764L184.77 125.19L183.998 126.824C183.348 128.228 182.387 130.262 181.099 132.721C179.604 135.615 177.917 138.405 176.05 141.073C173.773 144.356 171.055 147.308 167.971 149.848C166.32 151.194 164.587 152.325 162.954 153.465C161.364 154.533 159.849 155.708 158.421 156.984C157.13 158.143 156.039 159.508 155.194 161.023C154.464 162.342 153.918 163.753 153.569 165.219C153.075 167.351 152.88 169.541 152.99 171.727C153.026 172.499 153.071 173.1 153.111 173.522C153.111 173.715 153.143 173.868 153.152 173.971C153.157 174.016 153.157 174.061 153.152 174.106Z" fill="#455A64"/>
<path d="M209.199 149.282C209.199 149.282 209.199 149.246 209.244 149.179C209.289 149.111 209.329 149.004 209.388 148.883C209.446 148.761 209.536 148.6 209.617 148.402C209.697 148.205 209.774 147.976 209.868 147.72C210.318 146.24 210.386 144.669 210.065 143.156C209.597 140.908 208.548 138.822 207.023 137.106C205.317 135.162 202.893 133.578 200.219 132.259C197.544 130.939 194.855 129.938 192.486 128.861C190.367 127.942 188.353 126.8 186.476 125.455C185.217 124.534 184.094 123.44 183.141 122.205C182.984 121.981 182.841 121.783 182.715 121.608C182.589 121.433 182.513 121.276 182.437 121.16L182.266 120.877C182.245 120.846 182.228 120.813 182.217 120.778C182.217 120.778 182.244 120.805 182.289 120.863C182.333 120.922 182.401 121.025 182.473 121.137C182.544 121.249 182.648 121.406 182.773 121.586L183.222 122.165C184.194 123.37 185.325 124.437 186.584 125.338C188.46 126.656 190.468 127.775 192.575 128.677C194.941 129.741 197.624 130.737 200.322 132.061C203.019 133.385 205.461 134.996 207.184 136.998C208.725 138.748 209.776 140.874 210.232 143.16C210.54 144.701 210.444 146.295 209.953 147.787L209.679 148.465C209.594 148.663 209.495 148.811 209.428 148.941L209.262 149.228C209.226 149.255 209.204 149.286 209.199 149.282Z" fill="#455A64"/>
<path d="M191.946 164.174L189.213 163.276C189.041 163.199 188.849 163.18 188.666 163.222C188.483 163.317 188.343 163.477 188.275 163.671C187.921 164.318 187.681 165.021 187.566 165.749C187.512 166.109 187.537 166.476 187.638 166.825C187.74 167.175 187.916 167.498 188.154 167.773C188.42 168.052 188.763 168.245 189.139 168.33C189.515 168.415 189.908 168.386 190.268 168.249C190.591 168.075 190.872 167.833 191.091 167.539C191.311 167.245 191.463 166.907 191.538 166.548C191.714 165.856 191.943 165.179 192.225 164.524L191.946 164.174Z" fill="#EB996E"/>
<path d="M190.326 168.244C190.326 168.267 190.223 168.392 189.931 168.5C189.509 168.635 189.054 168.626 188.639 168.473C188.334 168.353 188.057 168.172 187.825 167.94C187.593 167.709 187.412 167.432 187.292 167.127C186.995 166.376 186.981 165.544 187.252 164.784C187.38 164.397 187.558 164.029 187.781 163.689C187.992 163.322 188.339 163.054 188.746 162.944C189.111 162.9 189.481 162.964 189.81 163.128L190.591 163.469C191.538 163.918 192.112 164.191 192.09 164.25C192.067 164.308 191.448 164.124 190.47 163.779L189.671 163.487C189.409 163.371 189.12 163.329 188.836 163.366C188.547 163.465 188.307 163.671 188.163 163.94C187.975 164.251 187.825 164.582 187.714 164.928C187.478 165.586 187.478 166.306 187.714 166.965C187.906 167.496 188.299 167.93 188.809 168.172C189.161 168.329 189.55 168.382 189.931 168.325C190.16 168.28 190.308 168.208 190.326 168.244Z" fill="#263238"/>
<path d="M195.452 148.034C195.199 147.958 194.951 147.862 194.712 147.747C194.126 147.53 193.498 147.451 192.876 147.514C192.257 147.594 191.672 147.842 191.184 148.232C190.812 148.537 190.628 148.784 190.592 148.757C190.699 148.506 190.865 148.284 191.077 148.111C191.571 147.65 192.2 147.36 192.872 147.285C193.53 147.212 194.195 147.319 194.797 147.595C195.044 147.694 195.267 147.844 195.452 148.034Z" fill="#455A64"/>
<path d="M190.73 150.359C190.723 150.315 190.723 150.269 190.73 150.225L190.695 149.83C190.689 149.614 190.665 149.399 190.623 149.188C190.58 148.899 190.52 148.612 190.443 148.331C189.966 146.516 188.893 144.915 187.396 143.784C186.296 142.949 185.004 142.404 183.639 142.199C182.273 141.994 180.878 142.137 179.582 142.613C178.832 142.876 178.128 143.255 177.495 143.735C177.167 143.979 176.855 144.244 176.562 144.529C176.272 144.83 176.002 145.149 175.754 145.485C174.713 146.896 174.152 148.604 174.152 150.357C174.152 152.11 174.713 153.818 175.754 155.229C176 155.566 176.27 155.886 176.562 156.185C176.855 156.472 177.166 156.738 177.495 156.984C178.129 157.462 178.833 157.841 179.582 158.106C181.388 158.76 183.365 158.767 185.175 158.126C186.986 157.486 188.518 156.236 189.51 154.592C189.928 153.907 190.243 153.165 190.443 152.388C190.52 152.106 190.58 151.82 190.623 151.531C190.665 151.319 190.689 151.104 190.695 150.889L190.73 150.494C190.723 150.449 190.723 150.404 190.73 150.359C190.735 150.404 190.735 150.449 190.73 150.494C190.73 150.597 190.73 150.727 190.73 150.893C190.732 151.11 190.714 151.326 190.677 151.54C190.645 151.834 190.591 152.125 190.515 152.41C190.333 153.2 190.03 153.957 189.617 154.654C189.074 155.588 188.353 156.405 187.495 157.06C186.453 157.865 185.237 158.412 183.944 158.658C182.461 158.936 180.93 158.812 179.51 158.299C178.741 158.029 178.017 157.643 177.365 157.154C177.028 156.902 176.708 156.629 176.404 156.337C176.105 156.03 175.828 155.701 175.574 155.355C174.502 153.906 173.923 152.151 173.923 150.348C173.923 148.545 174.502 146.79 175.574 145.342C176.071 144.65 176.677 144.043 177.369 143.546C178.021 143.061 178.743 142.678 179.51 142.411C180.932 141.895 182.467 141.773 183.953 142.056C185.129 142.282 186.244 142.755 187.222 143.446C188.2 144.136 189.02 145.027 189.626 146.06C190.04 146.757 190.343 147.514 190.524 148.304C190.6 148.589 190.654 148.88 190.686 149.174C190.723 149.388 190.741 149.604 190.739 149.821C190.739 149.987 190.739 150.117 190.739 150.22C190.742 150.267 190.739 150.313 190.73 150.359Z" fill="#455A64"/>
<path d="M179.232 156.741C179.097 156.732 178.964 156.697 178.842 156.638C178.5 156.52 178.171 156.37 177.859 156.189C176.81 155.566 175.951 154.67 175.372 153.597C174.794 152.523 174.518 151.313 174.573 150.094C174.589 149.73 174.637 149.368 174.717 149.013C174.738 148.88 174.781 148.751 174.843 148.631C174.888 148.631 174.74 149.192 174.74 150.099C174.732 151.278 175.022 152.44 175.584 153.476C176.146 154.513 176.961 155.391 177.953 156.028C178.703 156.503 179.246 156.705 179.232 156.741Z" fill="white"/>
<path d="M181.117 157.401C181.117 157.464 180.987 157.5 180.843 157.482C180.7 157.464 180.592 157.401 180.601 157.334C180.61 157.266 180.731 157.235 180.87 157.253C181.01 157.271 181.122 157.352 181.117 157.401Z" fill="white"/>
<path d="M211.824 150.359C211.817 150.315 211.817 150.269 211.824 150.225C211.824 150.121 211.824 149.991 211.793 149.83C211.787 149.614 211.762 149.399 211.716 149.188C211.678 148.898 211.619 148.612 211.541 148.331C211.064 146.516 209.991 144.915 208.494 143.784C207.395 142.949 206.102 142.404 204.737 142.199C203.371 141.994 201.976 142.137 200.68 142.613C199.931 142.876 199.226 143.255 198.593 143.735C198.265 143.979 197.953 144.244 197.66 144.529C197.37 144.83 197.1 145.149 196.852 145.485C195.811 146.896 195.25 148.604 195.25 150.357C195.25 152.11 195.811 153.818 196.852 155.229C197.098 155.566 197.368 155.886 197.66 156.185C197.953 156.472 198.265 156.738 198.593 156.984C199.228 157.462 199.931 157.841 200.68 158.106C202.486 158.76 204.463 158.767 206.273 158.126C208.084 157.486 209.616 156.236 210.608 154.592C211.026 153.907 211.341 153.165 211.541 152.388C211.619 152.106 211.678 151.82 211.716 151.531C211.762 151.32 211.787 151.105 211.793 150.889C211.793 150.727 211.82 150.597 211.824 150.494C211.817 150.449 211.817 150.404 211.824 150.359C211.829 150.404 211.829 150.449 211.824 150.494C211.824 150.597 211.824 150.727 211.824 150.893C211.823 151.11 211.805 151.326 211.77 151.54C211.738 151.834 211.684 152.125 211.609 152.41C211.427 153.2 211.124 153.957 210.711 154.654C210.168 155.589 209.445 156.406 208.584 157.06C207.545 157.865 206.33 158.413 205.038 158.658C203.555 158.936 202.024 158.812 200.604 158.299C199.835 158.029 199.111 157.643 198.459 157.154C198.121 156.903 197.8 156.63 197.498 156.337C197.199 156.03 196.921 155.701 196.668 155.355C195.595 153.906 195.017 152.151 195.017 150.348C195.017 148.545 195.595 146.79 196.668 145.342C197.165 144.65 197.771 144.043 198.463 143.546C199.115 143.061 199.837 142.678 200.604 142.411C202.026 141.895 203.561 141.773 205.047 142.056C206.223 142.282 207.337 142.755 208.316 143.446C209.294 144.136 210.114 145.027 210.72 146.06C211.134 146.757 211.437 147.514 211.618 148.304C211.694 148.589 211.748 148.88 211.779 149.174C211.814 149.388 211.832 149.604 211.833 149.821C211.833 149.987 211.833 150.117 211.833 150.22C211.835 150.267 211.832 150.313 211.824 150.359Z" fill="#455A64"/>
<path d="M197.418 154.946C197.418 154.946 197.31 154.843 197.158 154.623C196.95 154.309 196.768 153.979 196.614 153.635C196.094 152.496 195.843 151.251 195.883 149.998C195.923 148.745 196.251 147.519 196.843 146.414C197.024 146.081 197.232 145.763 197.463 145.463C197.541 145.349 197.635 145.246 197.741 145.157C197.777 145.184 197.413 145.647 197.005 146.504C196.472 147.602 196.174 148.799 196.13 150.018C196.097 151.238 196.317 152.451 196.776 153.582C197.117 154.439 197.463 154.924 197.418 154.946Z" fill="white"/>
<path d="M198.392 156.055C198.343 156.1 198.204 156.019 198.078 155.875C197.952 155.732 197.889 155.583 197.939 155.539C197.988 155.494 198.127 155.579 198.253 155.723C198.379 155.866 198.441 156.019 198.392 156.055Z" fill="white"/>
<path d="M155.876 188.4L168.129 185.079C168.129 185.079 172.922 196.56 183.698 196.452C195.506 196.335 194.344 185.721 194.344 185.721L216.12 189.24L219.199 226.518C219.199 226.518 217.372 259.698 214.082 267.149L219.199 279.213H147.012L145.85 193.521L155.876 188.4Z" fill="#455A64"/>
<path d="M199.033 238.434C199.684 238.039 200.38 237.904 200.914 237.612C201.448 237.321 202.26 237.437 202.409 238.012C202.597 238.658 201.865 239.17 201.251 239.448C202.664 240.126 204.594 238.631 205.81 239.619C206.609 240.265 206.421 241.62 205.685 242.334C204.949 243.047 203.89 243.267 202.853 243.384C201.816 243.501 200.775 243.568 199.877 244.066C199.428 244.327 198.98 244.834 199.128 245.345C199.406 246.212 201.022 246.028 201.219 246.916C201.354 247.518 200.685 247.962 200.124 248.218L193.998 250.978C193.48 251.275 192.893 251.429 192.297 251.427C192 251.413 191.72 251.288 191.512 251.077C191.304 250.865 191.184 250.583 191.175 250.287C191.238 249.708 191.857 249.349 192.436 249.263C193.017 249.251 193.596 249.192 194.168 249.088C194.725 248.918 195.232 248.339 195.03 247.791C194.774 247.114 193.805 247.172 193.105 247.343L186.601 249.07C186.134 249.238 185.631 249.278 185.143 249.187C184.904 249.125 184.698 248.974 184.568 248.764C184.439 248.554 184.395 248.302 184.447 248.061C184.555 247.827 184.728 247.629 184.945 247.491C186.5 246.325 188.296 245.52 190.201 245.134C190.93 245.048 191.641 244.845 192.306 244.533C192.943 244.169 193.441 243.438 193.266 242.738C191.924 243.224 190.532 243.555 189.115 243.725C188.612 243.788 187.948 243.725 187.804 243.24C187.661 242.756 188.208 242.343 188.679 242.096L196.251 238.366C196.893 238.052 197.629 237.729 198.302 237.971L199.033 238.434Z" fill="white"/>
<path d="M169.605 262.522C170.261 262.127 170.952 261.992 171.486 261.7C172.02 261.408 172.832 261.525 172.985 262.095C173.173 262.746 172.442 263.258 171.822 263.536C173.236 264.214 175.166 262.719 176.387 263.706C177.181 264.353 176.993 265.708 176.257 266.422C175.521 267.135 174.461 267.355 173.429 267.472C172.397 267.589 171.347 267.656 170.449 268.154C170 268.414 169.551 268.922 169.7 269.433C169.978 270.299 171.594 270.115 171.791 271.004C171.926 271.605 171.261 272.05 170.7 272.301L164.57 275.066C164.051 275.36 163.465 275.515 162.869 275.515C162.281 275.456 161.688 274.963 161.751 274.375C161.814 273.787 162.433 273.437 163.008 273.351C163.589 273.339 164.168 273.28 164.74 273.176C165.297 273.006 165.808 272.427 165.602 271.879C165.351 271.202 164.381 271.26 163.681 271.43L157.173 273.158C156.708 273.326 156.206 273.366 155.719 273.275C155.479 273.218 155.27 273.07 155.136 272.863C155.002 272.656 154.954 272.404 155.001 272.162C155.109 271.926 155.284 271.728 155.504 271.592C157.058 270.427 158.851 269.622 160.755 269.236C161.484 269.149 162.195 268.946 162.86 268.634C163.497 268.271 164 267.539 163.825 266.839C162.483 267.324 161.09 267.655 159.673 267.826C159.166 267.889 158.506 267.826 158.358 267.342C158.21 266.857 158.767 266.444 159.233 266.197L166.805 262.468C167.447 262.153 168.183 261.826 168.856 262.073L169.605 262.522Z" fill="white"/>
<path d="M203.459 265.802C204.114 265.407 204.805 265.273 205.34 264.976C205.874 264.68 206.686 264.806 206.839 265.376C207.027 266.027 206.295 266.538 205.681 266.816C207.094 267.494 209.024 266 210.241 266.987C211.035 267.633 210.851 268.989 210.11 269.702C209.37 270.416 208.315 270.631 207.283 270.753C206.251 270.874 205.205 270.937 204.307 271.435C203.836 271.695 203.41 272.202 203.558 272.714C203.836 273.58 205.447 273.392 205.649 274.28C205.784 274.882 205.115 275.33 204.554 275.582L198.428 278.346C197.908 278.641 197.32 278.796 196.722 278.795C196.426 278.781 196.146 278.654 195.939 278.442C195.732 278.23 195.612 277.947 195.605 277.651C195.663 277.072 196.287 276.717 196.866 276.632C197.447 276.619 198.026 276.56 198.598 276.457C199.155 276.286 199.662 275.703 199.46 275.16C199.204 274.482 198.235 274.54 197.535 274.711L191.031 276.439C190.564 276.607 190.06 276.646 189.573 276.551C189.332 276.495 189.123 276.348 188.99 276.14C188.856 275.932 188.81 275.68 188.859 275.438C188.967 275.204 189.14 275.007 189.357 274.868C190.914 273.705 192.709 272.902 194.613 272.516C195.342 272.427 196.052 272.224 196.718 271.915C197.351 271.551 197.853 270.82 197.678 270.12C196.337 270.609 194.944 270.941 193.527 271.112C193.02 271.17 192.36 271.112 192.216 270.627C192.073 270.142 192.62 269.729 193.092 269.482L200.658 265.753C201.305 265.434 202.036 265.111 202.714 265.358L203.459 265.802Z" fill="white"/>
<path d="M174.228 223.116C174.883 222.721 175.574 222.586 176.108 222.295C176.643 222.003 177.455 222.124 177.608 222.694C177.796 223.34 177.06 223.852 176.445 224.13C177.859 224.812 179.789 223.318 181.005 224.301C181.804 224.947 181.615 226.307 180.879 227.016C180.143 227.725 179.084 227.95 178.047 228.071C177.011 228.192 175.969 228.255 175.072 228.749C174.623 229.009 174.174 229.516 174.322 230.028C174.6 230.898 176.216 230.71 176.414 231.598C176.548 232.2 175.884 232.644 175.319 232.9L169.188 235.66C168.669 235.955 168.083 236.109 167.487 236.109C167.19 236.093 166.911 235.967 166.703 235.755C166.495 235.543 166.375 235.261 166.365 234.965C166.428 234.386 167.051 234.031 167.626 233.946C168.207 233.931 168.786 233.872 169.358 233.771C169.915 233.596 170.422 233.017 170.22 232.469C169.964 231.791 168.999 231.85 168.299 232.02L161.791 233.744C161.324 233.911 160.821 233.952 160.333 233.86C160.093 233.804 159.884 233.656 159.751 233.448C159.618 233.24 159.571 232.989 159.619 232.747C159.727 232.512 159.902 232.314 160.122 232.177C161.677 231.014 163.47 230.209 165.373 229.821C166.104 229.73 166.816 229.524 167.482 229.211C167.81 229.049 168.078 228.789 168.251 228.467C168.424 228.145 168.493 227.778 168.447 227.416C167.104 227.901 165.71 228.232 164.291 228.403C163.789 228.466 163.124 228.403 162.981 227.923C162.837 227.442 163.385 227.025 163.856 226.778L171.432 223.053C172.074 222.734 172.81 222.411 173.483 222.654L174.228 223.116Z" fill="white"/>
<g opacity="0.2">
<path d="M215.061 262.544C214.828 261.467 214.231 260.515 213.714 259.532C212.485 257.086 211.856 254.38 210.681 251.902C208.535 247.383 204.684 243.914 200.695 240.889C196.705 237.864 192.454 235.126 189.025 231.486L188.882 231.571C192.607 237.599 196.485 243.945 200.362 249.878L208.854 262.894C209.402 263.868 210.141 264.721 211.026 265.403C211.955 266.018 213.27 266.206 214.168 265.551C215.065 264.896 215.294 263.621 215.061 262.544Z" fill="black"/>
</g>
<path d="M249 249.721C246.46 240.745 240.594 226.558 238.229 221.132C235.863 215.706 227.394 199.226 227.394 199.226C227.394 199.226 223.117 190.55 215.276 189.11L212.404 222.353L204.209 214.607C204.209 214.607 188.209 226.15 188.478 230.8L207.907 251.288C207.907 251.288 211.816 259.891 219.639 265.757C227.462 271.623 228.045 275.532 234.692 275.138C241.339 274.743 239.97 277.094 244.077 270.649C248.183 264.205 251.54 258.716 249 249.721Z" fill="#455A64"/>
<path d="M199.541 240.076C199.505 240.099 199.137 239.488 198.397 238.618C197.414 237.5 196.373 236.434 195.277 235.427C194.177 234.406 193.158 233.302 192.23 232.123C191.88 231.675 191.611 231.289 191.436 231.019C191.332 230.881 191.246 230.73 191.18 230.571C191.304 230.682 191.414 230.809 191.507 230.948C191.705 231.199 191.992 231.562 192.36 232.002C193.319 233.143 194.348 234.223 195.439 235.238C196.541 236.252 197.573 237.341 198.527 238.497C198.807 238.855 199.068 239.228 199.308 239.614C199.403 239.758 199.482 239.914 199.541 240.076Z" fill="#263238"/>
<path d="M203.567 239.327C203.403 239.228 203.252 239.109 203.118 238.972C202.849 238.734 202.463 238.38 202 237.927C201.071 237.029 199.824 235.745 198.522 234.264C197.221 232.783 196.117 231.369 195.349 230.328C194.963 229.808 194.658 229.381 194.451 229.081C194.336 228.931 194.237 228.77 194.155 228.6C194.293 228.729 194.416 228.872 194.523 229.027L195.47 230.23C196.269 231.244 197.391 232.626 198.688 234.107C199.985 235.588 201.211 236.885 202.108 237.81L203.172 238.909C203.315 239.037 203.448 239.177 203.567 239.327Z" fill="#263238"/>
<path d="M207.394 237.289C207.233 237.185 207.083 237.064 206.946 236.93C206.663 236.688 206.259 236.329 205.761 235.88C204.773 234.982 203.427 233.717 201.982 232.289C200.537 230.862 199.257 229.52 198.355 228.537C197.907 228.044 197.539 227.64 197.296 227.357C197.163 227.218 197.041 227.068 196.933 226.908C197.096 227.023 197.247 227.156 197.381 227.303L198.49 228.425C199.428 229.381 200.734 230.696 202.166 232.128C203.597 233.56 204.935 234.848 205.891 235.772L207.026 236.876C207.163 237 207.287 237.139 207.394 237.289Z" fill="#263238"/>
<path d="M209.105 233.039C209.105 233.039 208.961 232.936 208.732 232.711L207.785 231.769L204.644 228.627L201.475 225.512L200.524 224.561C200.398 224.45 200.287 224.325 200.191 224.188C200.335 224.274 200.467 224.377 200.586 224.494C200.829 224.7 201.17 225.01 201.592 225.391C202.431 226.159 203.575 227.24 204.81 228.461C206.044 229.682 207.135 230.817 207.911 231.648C208.301 232.065 208.611 232.406 208.809 232.644C208.921 232.765 209.02 232.897 209.105 233.039Z" fill="#263238"/>
<path d="M210.029 228.968C210.082 229.082 210.118 229.203 210.137 229.327L210.177 229.489L210.07 229.359C209.544 228.735 208.158 226.958 206.421 224.965C205.321 223.699 204.289 222.582 203.535 221.778L202.637 220.827C202.519 220.717 202.417 220.592 202.332 220.454C202.465 220.543 202.588 220.645 202.7 220.76C202.929 220.966 203.257 221.276 203.647 221.657C204.432 222.434 205.487 223.538 206.591 224.799C207.851 226.228 209.031 227.726 210.123 229.287L210.052 229.314C210.028 229.2 210.02 229.084 210.029 228.968Z" fill="#263238"/>
<path d="M213.198 227.523C213.072 227.385 212.961 227.235 212.866 227.074C212.668 226.778 212.372 226.352 212.004 225.836C210.076 223.136 207.814 220.692 205.272 218.56C204.783 218.152 204.374 217.829 204.105 217.609C203.951 217.504 203.811 217.38 203.688 217.241C203.855 217.32 204.013 217.418 204.159 217.533C204.455 217.735 204.872 218.04 205.375 218.43C206.686 219.462 207.913 220.595 209.046 221.819C210.181 223.043 211.219 224.353 212.152 225.737C212.507 226.271 212.78 226.706 212.955 227.021C213.058 227.177 213.139 227.346 213.198 227.523Z" fill="#263238"/>
<path d="M235.216 239.273C235.872 238.874 236.563 238.739 237.097 238.447C237.631 238.155 238.443 238.277 238.596 238.847C238.784 239.493 238.053 240.009 237.438 240.287C238.847 240.965 240.777 239.471 241.998 240.458C242.792 241.1 242.604 242.46 241.868 243.173C241.132 243.887 240.073 244.102 239.04 244.223C238.008 244.345 236.958 244.407 236.06 244.919C235.589 245.179 235.163 245.687 235.306 246.198C235.589 247.064 237.2 246.876 237.402 247.765C237.532 248.366 236.868 248.815 236.307 249.066L230.181 251.826C229.661 252.123 229.073 252.278 228.475 252.275C227.887 252.212 227.295 251.723 227.358 251.131C227.421 250.538 228.04 250.197 228.614 250.112C229.197 250.097 229.778 250.038 230.351 249.937C230.908 249.766 231.415 249.183 231.209 248.64C230.957 247.958 229.988 248.016 229.288 248.191L222.784 249.914C222.318 250.084 221.814 250.124 221.326 250.031C221.085 249.975 220.876 249.828 220.743 249.62C220.609 249.412 220.562 249.16 220.612 248.918C220.718 248.683 220.891 248.484 221.11 248.348C222.666 247.186 224.459 246.383 226.361 245.996C227.09 245.908 227.801 245.705 228.466 245.395C229.104 245.031 229.606 244.3 229.431 243.6C228.089 244.086 226.697 244.419 225.28 244.591C224.773 244.65 224.113 244.591 223.965 244.107C223.817 243.622 224.373 243.209 224.862 242.962L232.429 239.233C233.076 238.914 233.807 238.591 234.48 238.838L235.216 239.273Z" fill="white"/>
<path d="M229.503 274.195C229.503 274.195 229.346 274.078 229.054 273.836C228.763 273.593 228.318 273.23 227.757 272.759L222.843 268.643L219.329 265.694C217.919 264.558 216.57 263.348 215.289 262.068C213.864 260.584 212.556 258.992 211.376 257.306C210.043 255.44 208.868 253.465 207.862 251.404V251.431L187.845 230.746L187.8 230.701V230.642C188.074 229.372 188.841 228.282 189.626 227.24C190.463 226.203 191.362 225.218 192.319 224.292C194.204 222.434 196.193 220.733 198.181 219.126C200.169 217.519 202.171 215.984 204.163 214.584L204.24 214.53L204.307 214.597C207.058 217.218 209.693 219.781 212.26 222.196C212.902 222.802 213.539 223.399 214.185 223.96C214.838 224.514 215.439 225.127 215.981 225.791C216.12 225.943 216.263 226.091 216.429 226.239C216.582 226.377 216.742 226.506 216.91 226.625C217.238 226.883 217.55 227.162 217.843 227.46C218.422 228.053 218.938 228.685 219.441 229.305C219.944 229.924 220.442 230.53 220.985 231.1C221.513 231.643 222.107 232.116 222.753 232.509C223.39 232.9 224.055 233.232 224.679 233.613C225.294 233.989 225.869 234.429 226.393 234.924C226.914 235.404 227.389 235.902 227.865 236.383C228.341 236.863 228.794 237.352 229.212 237.841C230.049 238.77 230.726 239.831 231.213 240.983C231.962 242.977 232.318 245.097 232.263 247.226C232.263 249.088 232.115 250.677 232.052 251.974C231.99 253.271 231.967 254.268 231.976 254.945C231.976 255.277 231.976 255.533 231.999 255.713C232.021 255.892 231.999 255.978 231.999 255.978C231.999 255.978 231.958 255.623 231.931 254.945C231.904 254.268 231.931 253.267 231.972 251.97C232.012 250.673 232.147 249.084 232.142 247.226C232.187 245.113 231.824 243.012 231.074 241.037C230.203 238.829 228.251 236.997 226.267 235.05C225.749 234.563 225.182 234.131 224.575 233.762C223.96 233.389 223.296 233.057 222.65 232.662C221.994 232.262 221.391 231.781 220.855 231.23C220.307 230.674 219.8 230.059 219.297 229.435C218.795 228.811 218.278 228.192 217.709 227.613C217.426 227.322 217.127 227.05 216.811 226.796C216.654 226.675 216.474 226.549 216.317 226.401C216.16 226.253 216.012 226.1 215.868 225.952C215.326 225.3 214.725 224.699 214.073 224.157C213.422 223.587 212.785 222.995 212.139 222.389C209.567 219.979 206.928 217.416 204.181 214.799H204.325C202.337 216.213 200.34 217.73 198.356 219.332C196.372 220.935 194.388 222.631 192.521 224.485C191.574 225.406 190.686 226.384 189.86 227.415C189.079 228.439 188.329 229.52 188.065 230.71L188.033 230.611L208.023 251.319C209.019 253.371 210.183 255.337 211.501 257.198C212.681 258.888 213.99 260.485 215.415 261.974C216.682 263.255 218.017 264.467 219.414 265.605L222.91 268.576L227.789 272.732L229.068 273.831C229.36 274.06 229.503 274.195 229.503 274.195Z" fill="#263238"/>
<path d="M241.042 256.718C240.98 256.474 240.938 256.225 240.916 255.973C240.849 255.453 240.763 254.761 240.656 253.931C240.548 253.101 240.431 252.033 240.301 250.902C240.234 250.332 240.18 249.73 240.068 249.106C239.964 248.484 239.737 247.889 239.399 247.356C238.668 246.279 237.55 245.624 236.594 245.004C235.638 244.385 234.74 243.864 233.991 243.429L232.196 242.41C231.97 242.297 231.753 242.168 231.545 242.024C231.784 242.107 232.015 242.21 232.236 242.334C232.685 242.545 233.3 242.868 234.063 243.285C234.826 243.703 235.723 244.219 236.702 244.825C237.68 245.431 238.807 246.086 239.583 247.226C239.942 247.784 240.18 248.411 240.283 249.066C240.395 249.69 240.445 250.291 240.508 250.861C240.62 251.992 240.723 253.02 240.813 253.895C240.903 254.77 240.947 255.421 240.997 255.946C241.036 256.202 241.051 256.46 241.042 256.718Z" fill="#263238"/>
<path d="M232.416 223.901C232.331 224.052 232.226 224.19 232.106 224.314C231.891 224.57 231.576 224.934 231.172 225.369C230.121 226.506 229.012 227.589 227.851 228.614C226.691 229.64 225.479 230.606 224.22 231.509C223.836 231.793 223.398 231.996 222.932 232.106C222.804 232.129 222.673 232.139 222.542 232.137C222.497 232.143 222.452 232.143 222.407 232.137C222.407 232.115 222.596 232.137 222.91 232.038C223.35 231.9 223.76 231.683 224.122 231.396C225.064 230.683 226.366 229.655 227.712 228.461C229.059 227.267 230.239 226.118 231.069 225.279L232.021 224.274C232.136 224.134 232.269 224.008 232.416 223.901Z" fill="#263238"/>
<path d="M224.001 208.458C223.994 208.535 223.979 208.612 223.956 208.687C223.92 208.835 223.866 209.05 223.79 209.328C223.637 209.88 223.4 210.675 223.094 211.658C222.497 213.624 221.559 216.307 220.85 219.35C220.274 221.957 220.031 224.626 220.128 227.294C220.156 228.101 220.228 228.906 220.343 229.704C220.428 230.274 220.487 230.602 220.469 230.602C220.436 230.532 220.412 230.458 220.397 230.382C220.366 230.234 220.303 230.019 220.253 229.736C220.103 228.935 220.006 228.126 219.962 227.312C219.815 224.629 220.037 221.938 220.621 219.314C221.335 216.249 222.295 213.574 222.933 211.622C223.247 210.675 223.507 209.894 223.696 209.315L223.907 208.687C223.926 208.606 223.958 208.529 224.001 208.458Z" fill="#263238"/>
<path d="M155.875 188.4C155.875 188.4 144.556 191.807 139.938 196.995C136.455 200.909 131.64 219.503 131.64 219.503C131.64 219.503 119.49 265.439 119.787 268.993C120.083 272.548 126.303 278.566 130.751 280.846C135.199 283.126 142.604 285.586 151.194 274.918C155.974 268.989 160.619 263.383 162.863 258.231C163.968 255.533 164.534 252.645 164.528 249.73L179.061 233.039L163.941 216.837L150.602 234.026L155.875 188.4Z" fill="#455A64"/>
<path d="M165.301 221.132C165.192 221.294 165.067 221.444 164.929 221.581C164.673 221.873 164.314 222.294 163.874 222.824C162.976 223.879 161.827 225.382 160.521 227.029C159.42 228.451 158.236 229.808 156.976 231.091C156.487 231.576 156.078 231.957 155.777 232.204C155.632 232.343 155.473 232.467 155.302 232.572C155.425 232.41 155.563 232.26 155.715 232.123C155.993 231.859 156.383 231.459 156.859 230.961C157.806 229.969 159.036 228.519 160.337 226.872C161.639 225.225 162.833 223.731 163.748 222.703C164.197 222.187 164.588 221.778 164.861 221.509C164.996 221.37 165.143 221.243 165.301 221.132Z" fill="#263238"/>
<path d="M166.45 224.112C166.375 224.272 166.282 224.423 166.172 224.561C165.983 224.844 165.696 225.248 165.333 225.737C164.605 226.715 163.537 228.039 162.366 229.467C161.194 230.894 160.063 232.159 159.256 233.057C158.87 233.479 158.546 233.838 158.286 234.13C158.172 234.265 158.046 234.39 157.909 234.502C157.992 234.34 158.096 234.189 158.219 234.053C158.43 233.784 158.739 233.403 159.116 232.931L162.173 229.283C163.367 227.855 164.417 226.554 165.189 225.598L166.087 224.471C166.197 224.341 166.318 224.221 166.45 224.112Z" fill="#263238"/>
<path d="M168.739 227.285C168.657 227.429 168.559 227.563 168.447 227.685L167.608 228.726C166.899 229.623 165.943 230.835 164.884 232.2C163.825 233.564 162.846 234.78 162.106 235.633C161.733 236.059 161.428 236.4 161.208 236.629C161.104 236.756 160.985 236.869 160.854 236.966C160.932 236.821 161.028 236.687 161.141 236.567C161.374 236.284 161.652 235.934 161.98 235.53C162.689 234.632 163.65 233.416 164.704 232.056C165.759 230.696 166.742 229.475 167.487 228.618C167.855 228.192 168.165 227.851 168.385 227.626C168.489 227.499 168.608 227.385 168.739 227.285Z" fill="#263238"/>
<path d="M171.651 230.8C171.585 230.931 171.5 231.051 171.4 231.159C171.229 231.374 170.974 231.684 170.65 232.056C170.009 232.81 169.089 233.829 168.065 234.942L165.435 237.792C165.092 238.204 164.72 238.591 164.322 238.95C164.388 238.821 164.471 238.702 164.569 238.595C164.74 238.375 164.991 238.061 165.314 237.698C165.951 236.939 166.867 235.903 167.89 234.798L170.529 231.957C170.877 231.547 171.252 231.16 171.651 230.8Z" fill="#263238"/>
<path d="M173.734 232.505C173.483 232.937 173.195 233.347 172.873 233.73C172.312 234.466 171.526 235.463 170.628 236.549C169.731 237.635 168.928 238.631 168.353 239.354C168.057 239.758 167.737 240.143 167.393 240.507C167.631 240.066 167.907 239.647 168.218 239.255C168.761 238.505 169.565 237.496 170.462 236.401L172.774 233.627C173.067 233.23 173.387 232.855 173.734 232.505Z" fill="#263238"/>
<path d="M150.697 232.07C150.674 232.07 150.621 231.782 150.459 231.28C150.213 230.578 149.865 229.915 149.427 229.314C148.77 228.425 148.007 227.619 147.156 226.913C146.108 226.049 144.988 225.277 143.808 224.606C141.646 223.4 139.395 222.36 137.075 221.496C136.178 221.159 135.46 220.912 134.957 220.742C134.692 220.666 134.432 220.571 134.181 220.459C134.252 220.459 134.324 220.472 134.392 220.495C134.531 220.531 134.728 220.58 134.984 220.656C135.496 220.8 136.236 221.024 137.134 221.343C139.477 222.167 141.744 223.191 143.911 224.404C145.103 225.081 146.231 225.865 147.281 226.747C148.132 227.472 148.886 228.303 149.525 229.22C149.96 229.841 150.293 230.527 150.513 231.253C150.571 231.451 150.613 231.654 150.639 231.859C150.669 231.925 150.689 231.997 150.697 232.07Z" fill="#263238"/>
<path d="M151.733 203.032C152.388 202.632 153.079 202.497 153.614 202.206C154.148 201.914 154.96 202.035 155.113 202.605C155.301 203.252 154.565 203.768 153.95 204.046C155.364 204.724 157.294 203.229 158.515 204.216C159.309 204.858 159.12 206.218 158.384 206.932C157.648 207.645 156.589 207.861 155.552 207.982C154.516 208.103 153.474 208.166 152.577 208.664C152.128 208.924 151.679 209.432 151.827 209.943C152.106 210.809 153.721 210.621 153.919 211.51C154.053 212.111 153.389 212.56 152.828 212.811L146.697 215.571C146.179 215.866 145.593 216.02 144.996 216.02C144.408 215.957 143.816 215.464 143.879 214.876C143.942 214.288 144.561 213.942 145.136 213.857C145.717 213.842 146.296 213.783 146.868 213.682C147.424 213.511 147.936 212.928 147.73 212.385C147.478 211.703 146.509 211.761 145.809 211.936L139.301 213.659C138.836 213.829 138.333 213.869 137.847 213.776C137.606 213.72 137.396 213.573 137.262 213.365C137.128 213.157 137.08 212.906 137.129 212.663C137.236 212.428 137.411 212.229 137.631 212.093C139.187 210.931 140.98 210.127 142.882 209.737C143.612 209.651 144.322 209.45 144.987 209.14C145.625 208.776 146.127 208.045 145.952 207.345C144.61 207.829 143.218 208.161 141.801 208.332C141.294 208.395 140.629 208.332 140.486 207.852C140.342 207.372 140.89 206.954 141.361 206.707L148.932 202.978C149.574 202.659 150.31 202.336 150.984 202.578L151.733 203.032Z" fill="white"/>
<path d="M139.804 248.994C140.454 248.599 141.15 248.465 141.684 248.168C142.218 247.872 143.03 247.998 143.183 248.568C143.372 249.219 142.636 249.73 142.021 250.009C143.434 250.686 145.364 249.192 146.581 250.179C147.379 250.825 147.191 252.181 146.455 252.872C145.719 253.563 144.66 253.801 143.623 253.922C142.586 254.043 141.545 254.106 140.647 254.604C140.198 254.865 139.75 255.372 139.898 255.884C140.176 256.75 141.792 256.561 141.989 257.454C142.124 258.056 141.46 258.5 140.894 258.751L134.768 261.525C134.249 261.82 133.663 261.974 133.067 261.974C132.77 261.96 132.489 261.835 132.281 261.622C132.073 261.41 131.953 261.127 131.945 260.829C132.008 260.25 132.632 259.896 133.206 259.811C133.787 259.798 134.366 259.739 134.938 259.636C135.495 259.465 136.002 258.882 135.8 258.338C135.544 257.661 134.579 257.719 133.875 257.89L127.372 259.618C126.904 259.786 126.4 259.825 125.913 259.73C125.673 259.673 125.464 259.525 125.331 259.317C125.198 259.11 125.151 258.859 125.199 258.617C125.307 258.382 125.482 258.186 125.702 258.051C127.255 256.885 129.049 256.08 130.953 255.695C131.682 255.606 132.392 255.403 133.058 255.094C133.385 254.932 133.654 254.672 133.827 254.35C134 254.028 134.068 253.661 134.023 253.298C132.679 253.784 131.285 254.115 129.867 254.286C129.364 254.344 128.7 254.286 128.556 253.801C128.413 253.316 128.96 252.903 129.432 252.657L137.003 248.927C137.645 248.608 138.381 248.285 139.054 248.532L139.804 248.994Z" fill="white"/>
<path d="M150.885 232.949C150.849 232.857 150.821 232.763 150.8 232.667C150.75 232.451 150.683 232.177 150.602 231.841C150.427 231.096 150.185 230.046 149.893 228.802C149.292 226.235 148.435 222.699 147.407 218.812C146.379 214.925 145.383 211.424 144.642 208.898C144.279 207.654 143.978 206.654 143.744 205.904C143.65 205.568 143.574 205.298 143.511 205.087C143.479 204.994 143.458 204.898 143.448 204.8C143.493 204.887 143.529 204.979 143.556 205.074C143.628 205.28 143.718 205.55 143.834 205.877C144.068 206.577 144.395 207.592 144.786 208.853C145.567 211.366 146.581 214.862 147.618 218.754C148.654 222.645 149.476 226.19 150.032 228.767C150.315 230.055 150.535 231.096 150.674 231.823C150.737 232.164 150.791 232.442 150.831 232.653C150.86 232.75 150.878 232.849 150.885 232.949Z" fill="#263238"/>
<path d="M131.304 260.233L131.385 259.972C131.447 259.797 131.533 259.523 131.645 259.214C131.878 258.549 132.224 257.567 132.735 256.323C133.352 254.796 134.131 253.339 135.06 251.979C136.164 250.381 137.798 248.873 139.602 247.235C141.406 245.597 143.085 243.492 144.867 241.212C146.649 238.932 148.498 236.428 150.468 233.793C152.438 231.159 154.507 228.371 156.72 225.504C158.932 222.636 161.266 219.669 163.856 216.761L163.937 216.667L164.022 216.761L172.329 225.706L178.963 232.887L179.039 232.967L178.963 233.044C176.239 236.024 173.631 238.954 171.18 241.822C169.96 243.254 168.779 244.677 167.671 246.095C167.388 246.45 167.119 246.804 166.854 247.163C166.585 247.509 166.337 247.872 166.113 248.249C165.683 248.998 165.34 249.793 165.09 250.619C164.583 252.253 164.309 253.904 163.91 255.48C163.721 256.257 163.481 257.022 163.192 257.769C162.9 258.505 162.545 259.187 162.231 259.878C161.012 262.402 159.63 264.844 158.093 267.189C155.878 270.548 153.275 273.635 150.338 276.385L149.606 277.063C149.373 277.269 149.157 277.462 148.946 277.637C148.538 277.996 148.188 278.293 147.896 278.535C147.604 278.777 147.394 278.934 147.241 279.06L147.012 279.231C147.012 279.231 147.079 279.163 147.227 279.042L147.869 278.499C148.157 278.27 148.502 277.965 148.906 277.601L149.557 277.018L150.284 276.331C153.191 273.554 155.769 270.452 157.968 267.086C159.491 264.742 160.86 262.301 162.065 259.779C162.379 259.093 162.734 258.401 163.017 257.683C163.3 256.942 163.535 256.184 163.721 255.412C164.112 253.846 164.386 252.19 164.897 250.543C165.148 249.701 165.494 248.891 165.929 248.128C166.16 247.745 166.412 247.375 166.683 247.02C166.948 246.66 167.222 246.301 167.5 245.947C168.613 244.52 169.794 243.097 171.014 241.661C173.46 238.788 176.068 235.853 178.797 232.873V233.026L172.159 225.845L163.878 216.9H164.049C161.468 219.804 159.134 222.761 156.917 225.625C154.7 228.488 152.627 231.266 150.634 233.901C148.641 236.535 146.797 239.022 145.015 241.306C143.233 243.591 141.555 245.714 139.71 247.334C137.865 248.954 136.268 250.475 135.159 252.033C134.228 253.382 133.443 254.826 132.816 256.341C132.291 257.576 131.919 258.558 131.69 259.214C131.569 259.541 131.474 259.793 131.411 259.968C131.349 260.143 131.304 260.233 131.304 260.233Z" fill="#263238"/>
<path d="M165.66 188.189C165.692 188.249 165.719 188.31 165.741 188.373L165.947 188.912C166.255 189.569 166.628 190.193 167.06 190.775C168.66 192.82 170.555 194.616 172.684 196.102H172.657C174.12 196.605 175.727 197.112 177.459 197.538C179.267 198.002 181.119 198.272 182.984 198.346C185.755 198.428 188.506 197.854 191.013 196.672C193.056 195.694 194.797 194.184 196.054 192.301C196.905 191.035 197.482 189.606 197.75 188.104C197.799 187.839 197.831 187.601 197.849 187.391C197.867 187.18 197.889 187.009 197.889 186.87V186.547C197.883 186.51 197.883 186.472 197.889 186.435C197.928 186.997 197.901 187.562 197.808 188.118C197.572 189.643 197.01 191.101 196.161 192.39C194.905 194.32 193.147 195.872 191.076 196.878C188.542 198.087 185.755 198.675 182.948 198.593C181.066 198.52 179.197 198.243 177.374 197.767C175.747 197.36 174.141 196.872 172.563 196.304C170.426 194.798 168.537 192.969 166.962 190.882C166.533 190.287 166.171 189.646 165.885 188.97C165.808 188.741 165.75 188.557 165.705 188.418C165.682 188.344 165.667 188.267 165.66 188.189Z" fill="#263238"/>
<path d="M184.685 214.351C184.38 214.912 184.244 215.55 184.294 216.188C184.345 216.825 184.579 217.434 184.968 217.941C186.301 216.994 187.526 215.905 188.621 214.692L188.909 214.4L189.842 211.729L187.342 210.383L185.022 210.078L184.685 214.351Z" fill="#EB996E"/>
<path d="M188.576 212.677C187.992 213.663 187.566 214.735 187.315 215.854C187.063 216.98 187.145 218.155 187.553 219.234C187.581 219.326 187.636 219.409 187.71 219.471C187.773 219.509 187.844 219.534 187.917 219.543L189.137 219.804C189.424 219.261 189.663 218.695 189.851 218.112" fill="#EB996E"/>
<path d="M170.345 229.121C170.345 229.121 173.581 224.355 174.483 223.358C174.994 222.78 175.647 222.345 176.377 222.097C176.377 222.097 181.162 219.297 182.696 217.403C184.231 215.509 186.579 212.075 186.579 212.075L187.75 211.716L188.926 212.888C188.926 212.888 188.477 218.305 190.82 218.938L192.086 218.574V208.197L184.501 203.05L178.545 199.908C178.545 199.908 174.214 207.672 172.948 208.844C171.683 210.015 164.771 217.308 164.021 218.121C164.021 218.103 164.52 222.38 170.345 229.121Z" fill="#FFBE9D"/>
<path d="M171.651 197.062L181.938 193.023L194.77 197.888C194.77 197.888 200.115 211.07 200.761 212.084C201.407 213.098 204.262 216.24 204.262 216.24C203.982 217.603 203.377 218.878 202.498 219.956C201.228 221.536 199.899 223.295 198.733 224.112C198.733 224.112 193.378 221.576 192.741 218.996C192.104 216.415 189.869 210.702 189.869 210.702L187.966 207.111L184.299 204.62L180.39 205.177C180.39 205.177 179.874 207.663 177.966 207.017L176.059 206.007L178.217 203.314C178.217 203.314 175.502 206.541 173.752 204.975L173.11 204.234L175.228 202.394C175.228 202.394 173.204 203.866 172.558 202.762L174.587 199.073C174.587 199.073 171.405 199.181 171.651 197.062Z" fill="#FFBE9D"/>
<path d="M204.244 216.24C204.244 216.24 204.15 216.15 203.984 215.971L203.239 215.163C202.92 214.804 202.521 214.36 202.068 213.817C201.839 213.552 201.592 213.264 201.341 212.95C201.058 212.625 200.807 212.273 200.591 211.9C199.788 210.262 198.948 208.224 197.952 205.877C196.956 203.53 195.865 200.855 194.667 197.915L194.716 197.969L181.903 193.099H181.979L171.692 197.161L171.764 197.067C171.726 197.375 171.781 197.688 171.921 197.965C172.088 198.233 172.328 198.448 172.612 198.584C173.224 198.863 173.892 198.998 174.565 198.979H174.767L174.668 199.149L173.478 201.317L172.644 202.834V202.731C172.7 202.823 172.777 202.901 172.867 202.96C172.958 203.018 173.061 203.055 173.169 203.068C173.402 203.092 173.638 203.064 173.86 202.987C174.319 202.831 174.753 202.608 175.148 202.327L175.292 202.506L173.173 204.351V204.185L173.815 204.926C174.132 205.201 174.545 205.339 174.964 205.312C175.388 205.273 175.797 205.139 176.162 204.921C176.897 204.482 177.556 203.927 178.115 203.278L178.29 203.422L176.131 206.092L176.099 205.926L178.007 206.941C178.271 207.028 178.553 207.053 178.828 207.013C179.095 206.956 179.34 206.824 179.533 206.631C179.914 206.225 180.176 205.722 180.291 205.177L180.314 205.105H180.381L184.286 204.553H184.326H184.358L188.02 207.048L189.918 210.639C190.847 213.067 191.655 215.28 192.284 217.25C192.436 217.744 192.584 218.224 192.701 218.691C192.76 218.915 192.83 219.137 192.912 219.355C193.007 219.555 193.113 219.75 193.231 219.938C193.701 220.589 194.262 221.169 194.896 221.662C195.774 222.352 196.704 222.973 197.678 223.52C198.01 223.708 198.266 223.843 198.441 223.937L198.702 224.081C198.702 224.081 198.607 224.045 198.428 223.96C198.248 223.874 197.979 223.744 197.651 223.56C196.664 223.033 195.723 222.423 194.837 221.738C194.19 221.244 193.617 220.659 193.136 220.001C193.012 219.808 192.899 219.607 192.8 219.4C192.715 219.178 192.642 218.951 192.58 218.722C192.459 218.273 192.306 217.784 192.153 217.29C191.512 215.329 190.699 213.121 189.757 210.702L187.845 207.111L187.876 207.143L184.205 204.661H184.277L180.372 205.217L180.457 205.132C180.334 205.718 180.053 206.26 179.645 206.698C179.421 206.922 179.138 207.078 178.828 207.147C178.517 207.199 178.197 207.172 177.899 207.066L175.992 206.052L175.871 205.989L175.956 205.886L178.11 203.193L178.285 203.337C177.709 204.009 177.027 204.582 176.266 205.033C175.873 205.271 175.43 205.416 174.973 205.455C174.493 205.485 174.02 205.324 173.658 205.006L173.016 204.266L172.94 204.181L173.025 204.104L175.144 202.26L175.292 202.444C174.878 202.738 174.425 202.972 173.945 203.139C173.691 203.224 173.422 203.254 173.155 203.229C173.013 203.212 172.877 203.162 172.756 203.084C172.636 203.007 172.534 202.903 172.46 202.78L172.428 202.722L172.46 202.664L173.294 201.147L174.488 198.979L174.591 199.149C173.88 199.171 173.173 199.027 172.527 198.728C172.201 198.571 171.928 198.323 171.742 198.014C171.581 197.7 171.517 197.345 171.558 196.995V196.928L171.625 196.901L181.916 192.862H181.956H181.997L194.77 197.794H194.81V197.834L198.064 205.805C199.047 208.153 199.859 210.208 200.654 211.837C200.866 212.206 201.111 212.554 201.385 212.878C201.632 213.193 201.875 213.484 202.099 213.754L203.257 215.1L203.975 215.93L204.244 216.24Z" fill="#EB996E"/>
<path d="M174.412 199.226C174.464 199.087 174.541 198.959 174.641 198.849C174.884 198.527 175.173 198.243 175.498 198.005C176.329 197.417 177.5 196.69 178.792 195.86C180.085 195.029 181.252 194.293 182.15 193.804C182.332 193.703 182.533 193.642 182.74 193.624C182.947 193.607 183.156 193.633 183.352 193.701C183.626 193.818 183.707 193.979 183.698 193.984C183.581 193.902 183.455 193.835 183.321 193.786C183.137 193.74 182.945 193.731 182.757 193.76C182.569 193.788 182.388 193.854 182.226 193.952C181.378 194.464 180.215 195.249 178.918 196.057L175.597 198.14C175.163 198.457 174.766 198.821 174.412 199.226Z" fill="#EB996E"/>
<path d="M189.877 199.073C189.638 199.048 189.401 199.003 189.168 198.939C188.72 198.835 188.069 198.669 187.274 198.431C186.48 198.194 185.546 197.884 184.523 197.484C184.032 197.224 183.48 197.1 182.925 197.125C182.325 197.206 181.732 197.335 181.153 197.511C180.574 197.678 180.027 197.939 179.532 198.283C179.082 198.628 178.661 199.007 178.271 199.419C177.504 200.191 176.808 200.895 176.207 201.461C175.605 202.026 175.094 202.466 174.726 202.749C174.542 202.888 174.393 202.996 174.277 203.059C174.16 203.121 174.12 203.157 174.115 203.148C174.286 202.982 174.466 202.824 174.654 202.677C175.004 202.376 175.493 201.923 176.077 201.331C176.66 200.738 177.342 200.038 178.105 199.253C178.5 198.83 178.927 198.44 179.384 198.086C179.897 197.725 180.466 197.45 181.067 197.273C181.663 197.095 182.273 196.965 182.889 196.883C183.191 196.847 183.497 196.876 183.787 196.968C184.07 197.058 184.326 197.175 184.581 197.273C185.591 197.677 186.516 198.005 187.301 198.261C188.087 198.517 188.724 198.71 189.168 198.84C189.411 198.899 189.648 198.977 189.877 199.073Z" fill="#EB996E"/>
<path d="M191.179 203.18C190.992 203.158 190.808 203.113 190.632 203.045L189.169 202.596L187.005 201.892L185.735 201.47C185.296 201.304 184.846 201.168 184.389 201.061C183.485 200.949 182.568 201.118 181.763 201.546C180.973 201.896 180.228 202.107 179.649 202.376C179.024 202.673 178.459 203.084 177.984 203.588C177.984 203.588 177.984 203.539 178.061 203.458C178.143 203.345 178.231 203.238 178.325 203.135C178.684 202.761 179.108 202.456 179.578 202.237C180.166 201.945 180.924 201.717 181.678 201.362C182.088 201.174 182.515 201.023 182.953 200.913C183.436 200.786 183.942 200.766 184.434 200.855C184.906 200.967 185.37 201.108 185.825 201.277L187.095 201.726L189.241 202.475L190.677 203.005C190.849 203.048 191.017 203.107 191.179 203.18Z" fill="#EB996E"/>
<path d="M178.859 232.949C178.779 232.97 178.696 232.982 178.613 232.985C178.455 232.985 178.218 233.012 177.912 233.017C177.049 233.034 176.186 232.964 175.336 232.81C174.746 232.705 174.168 232.538 173.613 232.312C172.976 232.038 172.394 231.652 171.894 231.172C170.744 230.103 169.712 228.915 168.815 227.626C167.837 226.28 166.912 224.996 166.158 223.762C165.478 222.676 164.917 221.521 164.484 220.315C164.194 219.499 164.013 218.648 163.945 217.784C163.922 217.551 163.914 217.317 163.923 217.084C163.912 217.002 163.912 216.919 163.923 216.837C163.945 216.837 163.945 217.174 164.017 217.775C164.118 218.623 164.32 219.456 164.619 220.257C165.071 221.442 165.643 222.579 166.324 223.65C167.083 224.866 168.012 226.145 168.986 227.487C169.874 228.762 170.891 229.943 172.02 231.01C172.94 231.878 174.101 232.449 175.35 232.648C176.188 232.816 177.04 232.909 177.894 232.927C178.518 232.945 178.855 232.931 178.859 232.949Z" fill="#263238"/>
<path d="M204.222 214.629C204.255 214.703 204.277 214.782 204.284 214.862C204.328 215.093 204.35 215.328 204.352 215.562C204.34 216.426 204.138 217.277 203.759 218.053C203.195 219.195 202.485 220.259 201.645 221.217C200.748 222.322 199.68 223.488 198.504 224.655C197.328 225.822 196.152 226.863 195.043 227.766C194.076 228.596 193.044 229.346 191.956 230.01C191.215 230.453 190.386 230.731 189.527 230.822C189.295 230.845 189.06 230.845 188.827 230.822C188.745 230.818 188.663 230.802 188.585 230.777C188.585 230.75 188.922 230.813 189.518 230.75C190.355 230.626 191.157 230.331 191.875 229.884C192.938 229.211 193.951 228.461 194.904 227.64C196.004 226.742 197.171 225.683 198.338 224.53C199.505 223.376 200.582 222.214 201.479 221.119C202.316 220.182 203.031 219.143 203.607 218.026C203.991 217.271 204.214 216.444 204.262 215.598C204.275 214.961 204.195 214.633 204.222 214.629Z" fill="#263238"/>
<g opacity="0.2">
<path d="M169.358 243.994C167.393 246.288 165.745 247.455 164.973 250.372C164.323 252.832 163.627 257.221 161.069 261.853C157.416 268.5 153.152 274.419 148.305 278.162C156.715 276.614 163.654 270.003 166.347 261.884C167.756 257.638 167.963 253.051 169.489 248.869C170.799 245.314 173.03 242.159 175.565 239.345C177.029 237.725 178.29 235.988 178.393 233.802C175.642 236.504 172.352 240.503 169.358 243.994Z" fill="black"/>
</g>
<g opacity="0.2">
<path d="M132.103 258.195C131.248 260.701 129.991 263.052 128.382 265.156C127.354 264.119 127.036 262.521 127.283 261.081C127.582 259.646 128.163 258.285 128.992 257.077C133.386 250.044 139.764 244.394 146.384 239.39C144.324 242.111 142.114 244.715 139.764 247.19C136.77 250.305 133.543 253.621 132.103 258.195Z" fill="black"/>
</g>
<path d="M189.101 239.919C189.074 240.003 189.037 240.083 188.989 240.157L188.625 240.817C188.311 241.387 187.822 242.195 187.189 243.178C186.556 244.16 185.762 245.305 184.837 246.539C183.913 247.773 182.826 249.088 181.637 250.417C180.448 251.745 179.236 252.939 178.109 254.007C176.983 255.076 175.924 255.969 175.013 256.7C174.102 257.432 173.348 258.002 172.809 258.374L172.194 258.823C172.125 258.877 172.049 258.924 171.97 258.962C172.027 258.895 172.094 258.836 172.167 258.787L172.755 258.338C173.276 257.943 174.012 257.355 174.905 256.61C175.798 255.865 176.844 254.945 177.966 253.891C179.088 252.836 180.268 251.624 181.462 250.3C182.656 248.976 183.706 247.666 184.662 246.449C185.618 245.233 186.403 244.098 187.05 243.128C187.696 242.159 188.208 241.364 188.549 240.808C188.71 240.552 188.84 240.359 188.948 240.175C188.99 240.085 189.041 239.999 189.101 239.919Z" fill="#263238"/>
<g opacity="0.2">
<path d="M231.949 254.447L232.964 255.834C234.743 251.491 234.784 246.631 233.08 242.258C231.37 237.94 227.906 234.951 223.655 233.039C225.531 234.134 226.761 235.413 228.247 236.814C231.949 240.301 232.919 244.762 231.931 254.447" fill="black"/>
</g>
<path d="M215.509 196.048C216.16 195.653 216.856 195.519 217.39 195.227C217.924 194.935 218.736 195.052 218.884 195.626C219.073 196.273 218.341 196.784 217.726 197.062C219.14 197.745 221.07 196.246 222.286 197.233C223.085 197.879 222.897 199.235 222.161 199.948C221.425 200.662 220.365 200.882 219.329 200.999C218.292 201.115 217.251 201.183 216.353 201.681C215.904 201.941 215.455 202.448 215.603 202.96C215.882 203.826 217.497 203.642 217.695 204.531C217.83 205.132 217.161 205.576 216.6 205.832L210.478 208.592C209.96 208.889 209.374 209.044 208.777 209.041C208.481 209.028 208.2 208.903 207.992 208.691C207.784 208.48 207.664 208.198 207.655 207.901C207.718 207.322 208.337 206.963 208.916 206.878C209.497 206.865 210.077 206.807 210.649 206.703C211.205 206.532 211.712 205.953 211.51 205.406C211.255 204.728 210.285 204.787 209.585 204.957L203.082 206.685C202.614 206.852 202.111 206.893 201.623 206.802C201.384 206.744 201.176 206.596 201.043 206.388C200.91 206.181 200.862 205.93 200.909 205.689C201.018 205.455 201.19 205.257 201.408 205.119C202.964 203.954 204.759 203.15 206.663 202.762C207.392 202.676 208.103 202.472 208.768 202.161C209.405 201.797 209.904 201.066 209.729 200.366C208.387 200.852 206.994 201.183 205.577 201.353C205.074 201.416 204.41 201.353 204.267 200.868C204.123 200.384 204.67 199.971 205.164 199.724L212.722 195.999C213.364 195.685 214.1 195.361 214.773 195.604L215.509 196.048Z" fill="white"/>
<path d="M95.87 266.502V266.951H93.7157V266.588L94.8781 265.488C95.1609 265.214 95.2103 265.039 95.2103 264.882C95.2103 264.613 95.0262 264.46 94.6672 264.46C94.5374 264.453 94.4076 264.477 94.2889 264.53C94.1702 264.583 94.066 264.664 93.985 264.765L93.6035 264.474C93.7381 264.311 93.909 264.183 94.1023 264.099C94.2956 264.015 94.506 263.977 94.7166 263.989C95.3494 263.989 95.7578 264.308 95.7578 264.828C95.7547 265.009 95.7092 265.186 95.625 265.346C95.5408 265.506 95.4203 265.644 95.2731 265.748L94.4922 266.493L95.87 266.502Z" fill="#263238"/>
<path d="M96.1663 265.053C96.1672 264.985 96.1879 264.92 96.2259 264.864C96.264 264.809 96.3175 264.766 96.3799 264.741C96.4423 264.716 96.5108 264.71 96.5766 264.723C96.6425 264.737 96.7029 264.77 96.7501 264.818C96.7974 264.865 96.8294 264.926 96.8422 264.992C96.855 265.058 96.848 265.127 96.8221 265.189C96.7961 265.251 96.7524 265.304 96.6964 265.341C96.6404 265.378 96.5747 265.398 96.5074 265.398C96.4619 265.4 96.4166 265.391 96.3743 265.374C96.3321 265.357 96.2937 265.332 96.2618 265.3C96.2298 265.267 96.2048 265.229 96.1884 265.186C96.1719 265.144 96.1644 265.098 96.1663 265.053ZM96.1663 266.646C96.1663 266.555 96.2022 266.469 96.2662 266.405C96.3302 266.341 96.4169 266.305 96.5074 266.305C96.5979 266.305 96.6846 266.341 96.7486 266.405C96.8125 266.469 96.8485 266.555 96.8485 266.646C96.8485 266.736 96.8125 266.823 96.7486 266.887C96.6846 266.951 96.5979 266.987 96.5074 266.987C96.4169 266.987 96.3302 266.951 96.2662 266.887C96.2022 266.823 96.1663 266.736 96.1663 266.646Z" fill="#263238"/>
<path d="M98.2087 264.038V266.96H97.6701V264.492H97.0508V264.043L98.2087 264.038Z" fill="#263238"/>
<path d="M101.417 266.296H100.879V266.96H100.354V266.296H98.7471V265.923L100.188 264.038H100.771L99.4248 265.834H100.381V265.25H100.892V265.838H101.417V266.296Z" fill="#263238"/>
<path d="M247.671 265.699H105.618V266.417H247.671V265.699Z" fill="white"/>
<path d="M153.089 264.927H103.872V266.843H153.089V264.927Z" fill="#DC3546"/>
<path d="M156.307 266.058C156.307 266.532 156.166 266.995 155.903 267.39C155.64 267.784 155.265 268.091 154.827 268.272C154.39 268.454 153.908 268.501 153.443 268.409C152.978 268.316 152.551 268.088 152.216 267.753C151.88 267.418 151.652 266.99 151.56 266.526C151.467 266.061 151.515 265.579 151.696 265.141C151.878 264.703 152.185 264.329 152.579 264.065C152.973 263.802 153.436 263.661 153.91 263.661C154.546 263.661 155.156 263.914 155.605 264.363C156.054 264.813 156.307 265.422 156.307 266.058Z" fill="#DC3546"/>
<path d="M251.611 266.273C251.608 266.412 251.577 266.548 251.518 266.674C251.46 266.8 251.377 266.912 251.273 267.004C251.169 267.096 251.048 267.165 250.916 267.208C250.784 267.251 250.645 267.266 250.507 267.252C249.686 267.252 249.201 266.722 249.201 265.748C249.201 264.774 249.807 264.146 250.682 264.146C250.96 264.137 251.234 264.204 251.477 264.339L251.266 264.761C251.094 264.658 250.896 264.608 250.696 264.617C250.126 264.617 249.767 264.972 249.767 265.654C249.871 265.546 249.997 265.462 250.136 265.408C250.276 265.354 250.425 265.331 250.575 265.34C250.705 265.327 250.837 265.341 250.962 265.382C251.087 265.423 251.202 265.489 251.299 265.577C251.397 265.665 251.475 265.773 251.529 265.892C251.583 266.012 251.611 266.142 251.611 266.273ZM251.068 266.296C251.068 265.982 250.83 265.784 250.467 265.784C250.392 265.776 250.317 265.782 250.245 265.804C250.173 265.825 250.106 265.861 250.048 265.91C249.991 265.958 249.943 266.018 249.91 266.085C249.876 266.152 249.856 266.225 249.852 266.3C249.852 266.588 250.076 266.812 250.48 266.812C250.554 266.821 250.628 266.814 250.698 266.792C250.769 266.771 250.834 266.734 250.89 266.685C250.945 266.637 250.99 266.577 251.02 266.51C251.051 266.443 251.067 266.37 251.068 266.296Z" fill="#263238"/>
<path d="M251.886 265.237C251.886 265.143 251.923 265.052 251.99 264.986C252.056 264.919 252.146 264.882 252.24 264.882C252.334 264.882 252.425 264.919 252.491 264.986C252.558 265.052 252.595 265.143 252.595 265.237C252.595 265.331 252.558 265.421 252.491 265.487C252.425 265.554 252.334 265.591 252.24 265.591C252.146 265.591 252.056 265.554 251.99 265.487C251.923 265.421 251.886 265.331 251.886 265.237ZM251.886 266.879C251.886 266.785 251.923 266.695 251.99 266.629C252.056 266.562 252.146 266.525 252.24 266.525C252.334 266.525 252.425 266.562 252.491 266.629C252.558 266.695 252.595 266.785 252.595 266.879C252.595 266.973 252.558 267.064 252.491 267.13C252.425 267.196 252.334 267.234 252.24 267.234C252.146 267.234 252.056 267.196 251.99 267.13C251.923 267.064 251.886 266.973 251.886 266.879Z" fill="#263238"/>
<path d="M252.953 265.699C252.953 264.707 253.496 264.146 254.214 264.146C254.932 264.146 255.475 264.707 255.475 265.699C255.475 266.691 254.932 267.252 254.214 267.252C253.496 267.252 252.953 266.691 252.953 265.699ZM254.91 265.699C254.91 264.972 254.627 264.635 254.214 264.635C253.801 264.635 253.519 264.972 253.519 265.699C253.519 266.426 253.801 266.763 254.214 266.763C254.627 266.763 254.91 266.426 254.91 265.699Z" fill="#263238"/>
<path d="M255.853 265.699C255.853 264.707 256.396 264.146 257.114 264.146C257.832 264.146 258.375 264.707 258.375 265.699C258.375 266.691 257.832 267.252 257.114 267.252C256.396 267.252 255.853 266.691 255.853 265.699ZM257.809 265.699C257.809 264.972 257.527 264.635 257.114 264.635C256.701 264.635 256.418 264.972 256.418 265.699C256.418 266.426 256.701 266.763 257.114 266.763C257.527 266.763 257.809 266.426 257.809 265.699Z" fill="#263238"/>
<path d="M263.33 265.434H262.729V263.706H264.456V264.303H263.33V265.434Z" fill="#263238"/>
<path d="M264.456 267.692H262.729V265.964H263.33V267.09H264.456V267.692Z" fill="#263238"/>
<path d="M267.212 267.692H265.484V267.09H266.615V265.964H267.212V267.692Z" fill="#263238"/>
<path d="M267.212 265.43H266.615V264.303H265.484V263.706H267.212V265.43Z" fill="#263238"/>
<path d="M104.987 151.54C106.365 150.046 106.271 147.718 104.776 146.34C103.282 144.962 100.954 145.056 99.5759 146.55C98.198 148.045 98.2924 150.373 99.7866 151.751C101.281 153.129 103.609 153.034 104.987 151.54Z" fill="#E0E0E0"/>
<path d="M105.959 149.04C105.932 149.04 105.959 148.708 105.798 148.142C105.619 147.478 105.255 146.877 104.749 146.411C104.243 145.945 103.616 145.632 102.939 145.508C102.308 145.394 101.659 145.451 101.058 145.674C100.397 145.917 99.8218 146.351 99.4066 146.921C98.9552 147.531 98.7115 148.27 98.7115 149.028C98.7115 149.787 98.9552 150.526 99.4066 151.136C99.8218 151.706 100.397 152.14 101.058 152.383C101.621 152.591 102.226 152.655 102.82 152.569C103.413 152.483 103.976 152.249 104.456 151.89C105.114 151.401 105.588 150.706 105.802 149.915C105.95 149.358 105.937 149.017 105.964 149.017C105.973 149.095 105.973 149.173 105.964 149.251C105.965 149.478 105.938 149.704 105.883 149.924C105.719 150.622 105.357 151.258 104.84 151.755C104.324 152.252 103.674 152.588 102.97 152.724C102.269 152.859 101.545 152.793 100.88 152.534C100.215 152.274 99.6373 151.831 99.2137 151.257C98.7306 150.608 98.4697 149.821 98.4697 149.013C98.4697 148.204 98.7306 147.417 99.2137 146.769C99.4346 146.458 99.7062 146.186 100.017 145.965C100.307 145.744 100.632 145.571 100.977 145.454C101.614 145.225 102.301 145.172 102.966 145.301C103.67 145.437 104.319 145.774 104.836 146.271C105.353 146.768 105.715 147.404 105.878 148.102C105.934 148.322 105.961 148.548 105.959 148.775C105.971 148.863 105.971 148.952 105.959 149.04Z" fill="#263238"/>
<path d="M165.597 148.51C165.597 148.573 153.192 148.627 137.892 148.627C122.592 148.627 110.187 148.573 110.187 148.51C110.187 148.447 122.587 148.394 137.892 148.394C153.196 148.394 165.597 148.425 165.597 148.51Z" fill="#263238"/>
<path d="M235.434 150.879C236.906 149.407 236.906 147.02 235.434 145.548C233.962 144.076 231.575 144.076 230.102 145.548C228.63 147.02 228.63 149.407 230.102 150.879C231.575 152.352 233.962 152.352 235.434 150.879Z" fill="#E0E0E0"/>
<path d="M246.942 150.879C248.414 149.407 248.414 147.02 246.942 145.548C245.469 144.076 243.082 144.076 241.61 145.548C240.138 147.02 240.138 149.407 241.61 150.879C243.082 152.352 245.469 152.352 246.942 150.879Z" fill="#E0E0E0"/>
<path d="M257.217 151.697C259.143 150.904 260.061 148.701 259.268 146.775C258.475 144.85 256.272 143.932 254.346 144.725C252.421 145.517 251.503 147.721 252.296 149.646C253.089 151.571 255.292 152.49 257.217 151.697Z" fill="#E0E0E0"/>
<path d="M107.835 234.857C108.499 232.545 109.931 230.31 112.139 229.359C114.437 228.367 117.099 228.933 119.45 229.785C121.802 230.638 124.113 231.787 126.631 231.94C129.149 232.092 131.95 230.907 132.699 228.52C133.399 226.276 132.048 223.879 130.352 222.236C128.56 220.514 126.364 219.271 123.965 218.621C121.566 217.97 119.043 217.934 116.626 218.515C114.21 219.097 111.979 220.276 110.138 221.946C108.297 223.616 106.907 225.722 106.094 228.071" fill="#DC3546"/>
<g opacity="0.3">
<path d="M130.334 222.25C128.542 220.528 126.346 219.284 123.947 218.634C121.549 217.984 119.025 217.948 116.609 218.529C114.192 219.11 111.961 220.29 110.121 221.96C108.28 223.63 106.889 225.736 106.076 228.084L107.836 234.87C108.5 232.559 109.931 230.324 112.14 229.372C114.438 228.38 117.099 228.946 119.451 229.799C121.802 230.651 124.114 231.8 126.632 231.953C129.149 232.106 131.95 230.921 132.7 228.533C133.382 226.276 132.031 223.879 130.334 222.25Z" fill="black"/>
</g>
<path d="M88.0388 244.892C84.3765 241.414 84.5605 235.35 86.3872 230.638C88.2139 225.925 92.2217 222.304 96.665 219.92C101.016 217.636 105.828 216.366 110.74 216.207C115.651 216.048 120.535 217.003 125.025 219C122.827 219.095 120.686 219.727 118.788 220.842C116.891 221.956 115.295 223.518 114.142 225.391C112.131 228.726 111.687 232.774 110.026 236.297C108.156 240.271 104.833 243.377 100.742 244.976C96.6516 246.575 92.1037 246.545 88.0343 244.892" fill="#DC3546"/>
<path d="M86.2795 223.973C82.2402 219.184 81.6792 211.496 82.2806 205.244C82.882 198.992 84.3227 192.709 83.3398 186.507C82.7564 182.835 81.3292 179.326 80.8489 175.641C80.3687 171.956 81.0509 167.782 83.9053 165.399C87.1906 162.666 92.3654 163.308 95.7808 165.879C99.1963 168.451 101.167 172.481 102.625 176.507C105.803 185.344 106.97 195.142 104.358 204.163C101.746 213.184 95.6193 221.253 86.6296 223.973" fill="#DC3546"/>
<path d="M84.3316 263.275C84.3139 263.092 84.3139 262.907 84.3316 262.723C84.3316 262.364 84.3316 261.826 84.3586 261.144C84.4124 259.766 84.5426 257.782 84.8523 255.34C85.2128 252.482 85.7328 249.645 86.4096 246.845C87.2542 243.406 88.5585 240.097 90.2873 237.007C92.0252 233.922 94.1553 231.075 96.6245 228.538C98.6344 226.466 100.86 224.616 103.262 223.017C104.277 222.313 105.26 221.783 106.103 221.289C106.947 220.796 107.724 220.463 108.347 220.163L109.806 219.548C109.972 219.47 110.145 219.407 110.322 219.359C110.165 219.455 110.002 219.539 109.833 219.611L108.401 220.279C107.795 220.598 107.055 220.984 106.198 221.455C105.34 221.927 104.402 222.501 103.402 223.215C98.1138 226.821 93.7277 231.597 90.5836 237.173C86.8539 243.698 85.8307 250.561 85.0901 255.372C84.7535 257.8 84.5875 259.779 84.4932 261.148C84.4573 261.808 84.4259 262.337 84.4034 262.728C84.3938 262.912 84.3698 263.095 84.3316 263.275Z" fill="#263238"/>
<path d="M49.3285 205.078C41.8199 209.607 41.8469 213.731 43.099 217.623C44.3512 221.514 48.9605 224.22 52.7799 222.761C54.9387 221.936 56.505 220.069 57.8425 218.175C59.1799 216.281 60.4321 214.27 62.3036 212.915C64.1752 211.559 66.8905 211.043 68.7755 212.385" fill="#DC3546"/>
<g opacity="0.3">
<path d="M49.3285 205.078C41.8199 209.607 41.8469 213.731 43.099 217.623C44.3512 221.514 48.9605 224.22 52.7799 222.761C54.9387 221.936 56.505 220.069 57.8425 218.175C59.1799 216.281 60.4321 214.27 62.3036 212.915C63.5942 211.956 65.1899 211.502 66.7917 211.635L49.3285 205.078Z" fill="black"/>
</g>
<path d="M66.7832 211.635L68.7759 212.385C68.1855 211.971 67.5 211.713 66.7832 211.635Z" fill="black"/>
<path d="M43.7094 210.047C45.6707 207.331 50.5223 206.546 53.5832 207.901C56.6441 209.257 58.8881 211.941 60.8988 214.633C62.9095 217.326 64.8618 220.145 67.6309 222.007C70.4001 223.87 74.3003 224.548 77.056 222.672C78.8781 221.437 79.9328 219.292 80.2649 217.12C80.5971 214.948 80.2649 212.726 79.8161 210.572C79.1564 207.43 78.0748 204.136 75.5524 202.134C72.7474 199.89 68.8472 199.8 65.2657 199.917C61.1501 200.052 56.9762 200.366 53.1164 201.784C49.2566 203.202 45.3206 206.272 43.6914 210.065" fill="#DC3546"/>
<path d="M78.0789 257.261C78.0789 257.261 78.0789 257.208 78.0789 257.1C78.0789 256.992 78.0789 256.813 78.052 256.615C78.052 256.166 78.0161 255.538 77.9891 254.753C77.9398 253.105 77.8769 250.772 77.7916 247.899C77.7064 245.027 77.5852 241.562 77.3743 237.743C77.1633 233.923 76.8761 229.722 76.2971 225.351C76.0533 223.226 75.6376 221.125 75.0539 219.068C74.4566 217.167 73.6859 215.325 72.7515 213.565C71.9132 211.968 70.9403 210.446 69.8432 209.014C68.8793 207.771 67.8182 206.607 66.6701 205.532C64.9967 203.985 63.1031 202.694 61.051 201.703C60.6875 201.533 60.3643 201.367 60.0771 201.254L59.3455 200.936L58.8967 200.756C58.7935 200.711 58.7441 200.689 58.7441 200.68C58.7995 200.687 58.8538 200.7 58.9057 200.72L59.3545 200.873L60.104 201.129C60.3958 201.236 60.7189 201.394 61.0959 201.551C63.1845 202.51 65.1142 203.783 66.8182 205.325C67.9879 206.398 69.0686 207.564 70.0497 208.812C71.1643 210.252 72.1524 211.785 73.0028 213.395C73.955 215.168 74.7393 217.027 75.3456 218.947C75.9379 221.023 76.3597 223.143 76.6068 225.288C77.1902 229.678 77.464 233.883 77.6615 237.707C77.859 241.531 77.9487 244.977 78.0071 247.872C78.0654 250.767 78.0879 253.11 78.0968 254.73C78.0968 255.52 78.0968 256.144 78.0968 256.597C78.0968 256.79 78.0968 256.952 78.0968 257.082C78.0982 257.142 78.0922 257.203 78.0789 257.261Z" fill="#263238"/>
<path d="M80.7943 260.654C80.4358 259.603 80.1597 258.526 79.9685 257.432C79.4497 254.442 79.335 251.396 79.6274 248.375C80.085 243.9 81.0439 239.49 82.4863 235.229C84.0257 230.4 86.1217 225.234 87.9079 219.683C88.7878 216.985 89.5071 214.238 90.0622 211.456C90.5581 208.868 90.9132 206.255 91.1259 203.629C91.4684 199.162 91.5493 194.68 91.3683 190.205C91.2381 186.381 91.0317 183.293 90.9195 181.152C90.8566 180.102 90.8117 179.276 90.7758 178.693C90.7758 178.428 90.7758 178.217 90.7444 178.051C90.7385 177.979 90.7385 177.907 90.7444 177.835C90.7659 177.905 90.778 177.978 90.7803 178.051C90.7803 178.212 90.8162 178.423 90.8432 178.688C90.8925 179.272 90.9599 180.093 91.0496 181.143C91.2157 183.28 91.458 186.372 91.6151 190.196C91.8342 194.683 91.7787 199.179 91.4491 203.66C91.2438 206.306 90.8932 208.938 90.3988 211.546C89.8401 214.333 89.1147 217.085 88.2266 219.786C86.4314 225.355 84.3354 230.512 82.7825 235.328C81.3386 239.565 80.3633 243.948 79.8742 248.397C79.5645 251.399 79.6444 254.428 80.1121 257.409C80.2961 258.46 80.4667 259.277 80.6148 259.82C80.6776 260.074 80.727 260.28 80.7629 260.439C80.78 260.51 80.7905 260.582 80.7943 260.654Z" fill="#263238"/>
<path d="M99.407 264.047H64.153L63.3496 257.261H99.407V264.047Z" fill="#455A64"/>
<path d="M67.9365 263.275L72.3438 283.633H91.4991L95.6236 263.275H67.9365Z" fill="#455A64"/>
<path d="M99.4064 264.047C99.4064 264.142 91.6554 264.196 82.0958 264.169C72.5361 264.142 64.7852 264.043 64.7852 263.953C64.7852 263.863 72.5361 263.805 82.0958 263.832C91.6554 263.859 99.4064 263.958 99.4064 264.047Z" fill="#455A64"/>
<path d="M93.3393 274.092C92.3819 273.368 91.3387 272.765 90.2335 272.296C89.0303 271.822 87.7522 271.565 86.459 271.538C84.8739 271.542 83.3022 271.829 81.8183 272.386C80.2116 272.929 78.7081 273.562 77.2494 273.912C75.951 274.191 74.6126 274.231 73.2999 274.029C72.4145 273.904 71.5561 273.632 70.7596 273.226C70.5479 273.111 70.3439 272.982 70.1493 272.84C70.0146 272.741 69.9518 272.682 69.9563 272.673C69.9608 272.665 70.257 272.849 70.818 273.122C71.6171 273.474 72.4641 273.706 73.3313 273.809C74.6148 273.978 75.918 273.922 77.1821 273.643C78.5959 273.288 80.0949 272.651 81.7151 272.104C83.2347 271.529 84.848 271.243 86.4725 271.26C87.7986 271.301 89.1056 271.587 90.3278 272.104C91.1497 272.449 91.9224 272.902 92.6257 273.45C92.8165 273.589 92.9993 273.739 93.1732 273.899C93.237 273.955 93.2928 274.02 93.3393 274.092Z" fill="#263238"/>
<path d="M93.0875 275.438C92.1634 274.743 91.1637 274.154 90.1074 273.683C88.9511 273.21 87.7168 272.956 86.4675 272.934C84.9356 272.937 83.4163 273.21 81.9794 273.742C80.4266 274.258 78.9679 274.859 77.5766 275.236C76.3466 275.597 75.0645 275.749 73.7842 275.685C72.9185 275.634 72.0723 275.406 71.2978 275.016C71.0888 274.909 70.8892 274.784 70.7008 274.644C70.5752 274.545 70.5123 274.491 70.5168 274.482C70.5213 274.473 70.8086 274.653 71.3516 274.9C72.1265 275.23 72.9556 275.416 73.7976 275.447C75.0487 275.485 76.2977 275.32 77.4958 274.958C78.8423 274.576 80.3054 273.971 81.8762 273.445C83.3487 272.903 84.9074 272.632 86.4765 272.647C87.7607 272.683 89.0257 272.968 90.2016 273.486C90.9928 273.835 91.734 274.287 92.4053 274.832C92.5884 274.972 92.7637 275.122 92.9304 275.281C93.0381 275.384 93.0965 275.438 93.0875 275.438Z" fill="white"/>
<path d="M93.7066 272.745C92.715 272.005 91.6449 271.376 90.5155 270.869C89.2885 270.34 87.9801 270.024 86.6468 269.936C85.0108 269.903 83.3841 270.189 81.858 270.78C80.1974 271.341 78.6535 272.014 77.1275 272.328C75.7773 272.558 74.398 272.558 73.0478 272.328C72.139 272.186 71.2568 271.908 70.4313 271.502C70.2098 271.386 69.9968 271.254 69.794 271.107C69.6548 271.004 69.5875 270.946 69.5965 270.937C69.6055 270.928 69.9062 271.116 70.4941 271.385C71.3248 271.738 72.1987 271.978 73.0927 272.099C74.4165 272.291 75.7627 272.265 77.0782 272.023C78.5413 271.709 80.0897 271.026 81.7592 270.465C83.3237 269.856 84.9959 269.572 86.6737 269.631C88.039 269.732 89.3751 270.077 90.6188 270.649C91.4573 271.025 92.247 271.501 92.9705 272.068C93.1687 272.217 93.3576 272.379 93.536 272.552C93.6527 272.673 93.7111 272.745 93.7066 272.745Z" fill="white"/>
<path d="M99.717 264.079C99.717 264.173 91.7865 264.245 82.0069 264.245C72.2273 264.245 64.2969 264.173 64.2969 264.079C64.2969 263.985 72.2229 263.908 82.0069 263.908C91.791 263.908 99.717 263.985 99.717 264.079Z" fill="#263238"/>
<path d="M309.01 181.888H305.043V184.761H309.01V181.888Z" fill="#455A64"/>
<path d="M275.727 158.613H268.9V178.544H275.727V158.613Z" fill="#DC3546"/>
<g opacity="0.3">
<path d="M275.727 158.613H268.9V178.544H275.727V158.613Z" fill="black"/>
</g>
<path d="M275.727 156.984V179.936H295.268L299.922 177.144V160.238L295.191 156.984H275.727Z" fill="#DC3546"/>
<path d="M283.244 156.984H281.754V179.94H283.244V156.984Z" fill="#455A64"/>
<path d="M291.637 179.743C291.583 179.743 291.538 174.676 291.538 168.428C291.538 162.181 291.583 157.114 291.637 157.114C291.691 157.114 291.74 162.181 291.74 168.428C291.74 174.676 291.713 179.743 291.637 179.743Z" fill="#263238"/>
<path d="M291.471 175.434C288.73 175.572 285.985 175.572 283.244 175.434C283.244 175.38 285.084 175.335 287.36 175.335C289.635 175.335 291.471 175.38 291.471 175.434Z" fill="#263238"/>
<path d="M291.471 174.164C288.73 174.302 285.985 174.302 283.244 174.164C283.244 174.11 285.084 174.065 287.36 174.065C289.635 174.065 291.471 174.11 291.471 174.164Z" fill="#263238"/>
<path d="M291.471 172.894C288.73 173.032 285.985 173.032 283.244 172.894C283.244 172.84 285.084 172.795 287.36 172.795C289.635 172.795 291.471 172.84 291.471 172.894Z" fill="#263238"/>
<path d="M291.471 171.624C288.73 171.762 285.985 171.762 283.244 171.624C283.244 171.57 285.084 171.525 287.36 171.525C289.635 171.525 291.471 171.57 291.471 171.624Z" fill="#263238"/>
<path d="M291.471 170.354C288.73 170.491 285.985 170.491 283.244 170.354C283.244 170.3 285.084 170.255 287.36 170.255C289.635 170.255 291.471 170.3 291.471 170.354Z" fill="#263238"/>
<path d="M291.471 169.07C288.73 169.208 285.985 169.208 283.244 169.07C283.244 169.016 285.084 168.971 287.36 168.971C289.635 168.971 291.471 169.03 291.471 169.07Z" fill="#263238"/>
<path d="M291.471 167.813C288.73 167.951 285.985 167.951 283.244 167.813C283.244 167.759 285.084 167.715 287.36 167.715C289.635 167.715 291.471 167.759 291.471 167.813Z" fill="#263238"/>
<path d="M291.471 166.543C288.73 166.681 285.985 166.681 283.244 166.543C283.244 166.489 285.084 166.445 287.36 166.445C289.635 166.445 291.471 166.489 291.471 166.543Z" fill="#263238"/>
<path d="M291.471 165.273C288.73 165.411 285.985 165.411 283.244 165.273C283.244 165.219 285.084 165.174 287.36 165.174C289.635 165.174 291.471 165.219 291.471 165.273Z" fill="#263238"/>
<path d="M291.471 164.003C288.73 164.141 285.985 164.141 283.244 164.003C283.244 163.949 285.084 163.904 287.36 163.904C289.635 163.904 291.471 163.949 291.471 164.003Z" fill="#263238"/>
<path d="M291.471 162.733C288.73 162.87 285.985 162.87 283.244 162.733C283.244 162.679 285.084 162.634 287.36 162.634C289.635 162.634 291.471 162.679 291.471 162.733Z" fill="#263238"/>
<path d="M291.471 161.463C288.73 161.6 285.985 161.6 283.244 161.463C283.244 161.409 285.084 161.364 287.36 161.364C289.635 161.364 291.471 161.409 291.471 161.463Z" fill="#263238"/>
<path d="M291.471 160.197C291.471 160.251 289.631 160.296 287.36 160.296C285.089 160.296 283.244 160.251 283.244 160.197C285.985 160.06 288.73 160.06 291.471 160.197Z" fill="#263238"/>
<path d="M291.471 158.927C291.471 158.981 289.631 159.026 287.36 159.026C285.089 159.026 283.244 158.981 283.244 158.927C285.985 158.789 288.73 158.789 291.471 158.927Z" fill="#263238"/>
<path d="M291.471 157.657C291.471 157.711 289.631 157.756 287.36 157.756C285.089 157.756 283.244 157.711 283.244 157.657C285.985 157.519 288.73 157.519 291.471 157.657Z" fill="#263238"/>
<path d="M291.471 176.87C291.471 176.924 289.631 176.974 287.36 176.974C285.089 176.974 283.244 176.924 283.244 176.87C283.244 176.816 285.084 176.767 287.36 176.767C289.635 176.767 291.471 176.816 291.471 176.87Z" fill="#263238"/>
<path d="M291.471 178.307C291.471 178.36 289.631 178.405 287.36 178.405C285.089 178.405 283.244 178.36 283.244 178.307C285.985 178.169 288.73 178.169 291.471 178.307Z" fill="#263238"/>
<path d="M296.439 153.308V154.363C296.439 154.598 296.503 154.828 296.624 155.03C296.745 155.231 296.919 155.396 297.126 155.507L299.922 156.984V180.47H302.88C303.133 180.47 303.385 180.421 303.619 180.324C303.854 180.227 304.067 180.085 304.246 179.906C304.425 179.727 304.567 179.514 304.664 179.279C304.761 179.045 304.81 178.794 304.81 178.54H316.236C316.677 178.541 317.114 178.454 317.521 178.286C317.928 178.118 318.298 177.871 318.61 177.56C318.922 177.248 319.169 176.878 319.338 176.471C319.507 176.064 319.594 175.628 319.594 175.187V154.749C319.592 154.442 319.47 154.148 319.253 153.931C319.036 153.714 318.742 153.592 318.436 153.591H316.959V152.307L314.464 149.946L303.997 150.35L297.409 152.056C297.131 152.127 296.885 152.289 296.71 152.516C296.534 152.743 296.439 153.021 296.439 153.308Z" fill="#DC3546"/>
<path d="M319.593 155.094C319.593 155.148 314.4 154.794 308.005 154.3C301.609 153.806 296.43 153.366 296.435 153.308C296.439 153.25 301.627 153.609 308.023 154.098C314.418 154.587 319.598 155.036 319.593 155.094Z" fill="#263238"/>
<path d="M304.778 159.232C304.837 159.232 304.882 163.559 304.882 168.895C304.882 174.231 304.837 178.562 304.778 178.562C304.72 178.562 304.68 174.236 304.68 168.895C304.68 163.554 304.729 159.232 304.778 159.232Z" fill="#263238"/>
<path d="M309.522 154.188C308.808 155.096 308.04 155.963 307.224 156.782C306.456 157.644 305.64 158.463 304.778 159.232C305.492 158.324 306.26 157.459 307.076 156.642C307.844 155.778 308.66 154.958 309.522 154.188Z" fill="#263238"/>
<path d="M302.43 154.838C302.215 154.835 302.006 154.91 301.842 155.048C301.677 155.187 301.567 155.38 301.533 155.592C301.505 155.81 301.566 156.03 301.7 156.203C301.835 156.377 302.033 156.489 302.251 156.517C302.469 156.544 302.689 156.484 302.862 156.349C303.035 156.215 303.148 156.016 303.175 155.799C303.175 155.242 302.942 154.838 302.417 154.838" fill="#263238"/>
<path d="M299.922 180.47C299.863 180.47 299.818 175.219 299.818 168.738C299.818 162.257 299.863 157.006 299.922 157.006C299.98 157.006 300.025 162.257 300.025 168.738C300.025 175.219 299.975 180.47 299.922 180.47Z" fill="#263238"/>
<path d="M295.268 179.936C295.214 179.936 295.151 174.797 295.129 168.46C295.106 162.123 295.129 156.984 295.191 156.984C295.254 156.984 295.308 162.123 295.331 168.46C295.353 174.797 295.326 179.936 295.268 179.936Z" fill="#263238"/>
<path d="M293.271 158.896C293.413 158.863 293.561 158.886 293.687 158.959C293.812 159.032 293.905 159.15 293.948 159.289C293.99 159.428 293.978 159.578 293.914 159.709C293.85 159.839 293.739 159.941 293.603 159.992C293.467 160.044 293.317 160.043 293.182 159.988C293.048 159.934 292.939 159.83 292.877 159.699C292.816 159.567 292.806 159.417 292.851 159.279C292.896 159.141 292.991 159.025 293.118 158.954" fill="#263238"/>
<path d="M304.778 178.383H316.973V180.115C316.973 180.353 316.878 180.582 316.71 180.75C316.541 180.918 316.313 181.013 316.075 181.013H304.778V178.369V178.383Z" fill="#263238"/>
<path d="M309.864 181.026H303.935C303.801 181.026 303.692 181.135 303.692 181.269V181.92C303.692 182.053 303.801 182.162 303.935 182.162H309.864C309.997 182.162 310.106 182.053 310.106 181.92V181.269C310.106 181.135 309.997 181.026 309.864 181.026Z" fill="#263238"/>
<path d="M315.828 184.76H299.478C299.223 184.76 299.016 184.967 299.016 185.223V186.466C299.016 186.721 299.223 186.928 299.478 186.928H315.828C316.083 186.928 316.29 186.721 316.29 186.466V185.223C316.29 184.967 316.083 184.76 315.828 184.76Z" fill="#263238"/>
<path d="M320.76 183.76H315.343C314.852 183.76 314.454 184.158 314.454 184.648V187.041C314.454 187.531 314.852 187.929 315.343 187.929H320.76C321.251 187.929 321.649 187.531 321.649 187.041V184.648C321.649 184.158 321.251 183.76 320.76 183.76Z" fill="#263238"/>
<path d="M309.742 186.928H303.589V208.139H309.742V186.928Z" fill="#263238"/>
<path d="M303.517 207.219H309.8V282.713C309.8 283.07 309.658 283.413 309.406 283.665C309.153 283.918 308.811 284.06 308.454 284.06H304.863C304.506 284.06 304.163 283.918 303.911 283.665C303.658 283.413 303.517 283.07 303.517 282.713V207.219Z" fill="#263238"/>
<path d="M310.594 264.945H302.489C301.896 264.945 301.416 265.425 301.416 266.017V271.031C301.416 271.623 301.896 272.103 302.489 272.103H310.594C311.187 272.103 311.667 271.623 311.667 271.031V266.017C311.667 265.425 311.187 264.945 310.594 264.945Z" fill="#455A64"/>
<path d="M311.667 266.049H315.334C315.613 266.049 315.882 266.16 316.08 266.358C316.277 266.556 316.388 266.824 316.388 267.104V269.945C316.388 270.083 316.361 270.22 316.308 270.348C316.255 270.476 316.177 270.593 316.08 270.691C315.982 270.788 315.865 270.866 315.737 270.919C315.609 270.972 315.472 270.999 315.334 270.999H311.667V266.063V266.049Z" fill="#455A64"/>
<path d="M301.416 271.004H297.749C297.47 271.004 297.201 270.893 297.003 270.695C296.806 270.497 296.695 270.229 296.695 269.949V267.108C296.695 266.97 296.722 266.833 296.775 266.705C296.828 266.577 296.906 266.46 297.003 266.362C297.101 266.265 297.218 266.187 297.346 266.134C297.474 266.081 297.611 266.054 297.749 266.054H301.416V270.99V271.004Z" fill="#455A64"/>
<path d="M314.648 205.994H298.683C298.093 205.994 297.615 206.472 297.615 207.062V209.939C297.615 210.529 298.093 211.007 298.683 211.007H314.648C315.237 211.007 315.716 210.529 315.716 209.939V207.062C315.716 206.472 315.237 205.994 314.648 205.994Z" fill="#263238"/>
<path d="M328.421 278.436H285.699C284.742 278.436 283.967 279.212 283.967 280.168V282.327C283.967 283.284 284.742 284.06 285.699 284.06H328.421C329.378 284.06 330.154 283.284 330.154 282.327V280.168C330.154 279.212 329.378 278.436 328.421 278.436Z" fill="#455A64"/>
<path d="M337.312 207.511H314.988V209.49H337.312V207.511Z" fill="#263238"/>
<path d="M343.641 205.302H336.577C335.826 205.302 335.217 205.911 335.217 206.662V210.311C335.217 211.062 335.826 211.671 336.577 211.671H343.641C344.392 211.671 345.001 211.062 345.001 210.311V206.662C345.001 205.911 344.392 205.302 343.641 205.302Z" fill="#263238"/>
<path d="M266.288 157.666L266.562 179.164L269.448 180.47V156.463C269.241 156.53 266.288 157.666 266.288 157.666Z" fill="#DC3546"/>
<path d="M280.044 180.219C279.985 180.219 279.94 174.95 279.94 168.455C279.94 161.961 279.985 156.688 280.044 156.688C280.102 156.688 280.147 161.952 280.147 168.455C280.147 174.959 280.111 180.219 280.044 180.219Z" fill="#263238"/>
<path d="M268.012 179.478C267.958 179.478 267.913 174.438 267.913 168.222C267.913 162.006 267.958 156.966 268.012 156.966C268.066 156.966 268.115 162.001 268.115 168.222C268.115 174.442 268.07 179.478 268.012 179.478Z" fill="#263238"/>
<path d="M275.237 169.007C273.356 169.145 271.468 169.145 269.587 169.007C271.468 168.876 273.356 168.876 275.237 169.007Z" fill="#263238"/>
<path d="M314.334 177.781C314.275 177.781 314.23 172.643 314.23 166.305C314.23 159.968 314.275 154.834 314.334 154.834C314.392 154.834 314.432 159.968 314.432 166.305C314.432 172.643 314.388 177.781 314.334 177.781Z" fill="#263238"/>
<path d="M152.132 141.962L147.128 133.138C150.236 128.113 151.352 122.107 150.256 116.3C149.16 110.494 145.931 105.307 141.205 101.761C136.479 98.2142 130.597 96.564 124.715 97.1346C118.834 97.7052 113.379 100.455 109.423 104.844C105.466 109.233 103.295 114.944 103.336 120.852C103.376 126.761 105.626 132.441 109.642 136.775C113.658 141.109 119.151 143.784 125.039 144.274C130.928 144.764 136.787 143.033 141.464 139.422L152.132 141.962Z" fill="#FAFAFA"/>
<path d="M152.132 141.962L141.437 139.516L141.33 139.493L141.397 139.404L141.5 139.507C140.003 140.671 138.373 141.653 136.644 142.433C134.576 143.354 132.385 143.972 130.141 144.269C128.903 144.441 127.651 144.504 126.402 144.457C125.76 144.421 125.105 144.408 124.445 144.354L122.448 144.049C117.836 143.148 113.594 140.901 110.258 137.592C106.921 134.283 104.64 130.059 103.701 125.455C103.021 121.976 103.116 118.39 103.98 114.953C104.872 111.358 106.609 108.028 109.047 105.24L110.012 104.177C110.33 103.822 110.707 103.526 111.048 103.198C111.389 102.871 111.735 102.538 112.121 102.265L113.252 101.421C113.626 101.134 114.021 100.874 114.432 100.644L115.631 99.9174L116.883 99.307C117.293 99.0943 117.716 98.907 118.149 98.746C121.511 97.4157 125.129 96.8589 128.736 97.1168C132.145 97.3497 135.461 98.3304 138.448 99.9892C143.819 102.977 147.836 107.915 149.668 113.781C150.397 116.274 150.742 118.863 150.692 121.46C150.628 123.715 150.239 125.949 149.538 128.094C148.949 129.871 148.154 131.573 147.169 133.165V133.093L152.106 141.953L147.047 133.165V133.129V133.093C148.016 131.503 148.796 129.806 149.372 128.035C150.058 125.905 150.434 123.688 150.49 121.451C150.527 118.884 150.173 116.327 149.44 113.866C147.62 108.064 143.645 103.181 138.332 100.223C135.374 98.5879 132.094 97.6241 128.723 97.3996C125.16 97.1464 121.586 97.6971 118.265 99.0108C117.839 99.1714 117.422 99.3572 117.018 99.5673L115.779 100.169L114.594 100.891C114.19 101.119 113.803 101.376 113.436 101.659L112.319 102.494C111.949 102.782 111.595 103.091 111.259 103.418C110.918 103.741 110.546 104.028 110.232 104.383L109.28 105.429C106.876 108.184 105.162 111.471 104.28 115.02C103.423 118.417 103.326 121.962 103.998 125.401C104.649 128.654 105.99 131.73 107.929 134.422C111.419 139.294 116.633 142.656 122.511 143.824L124.486 144.13C125.141 144.188 125.787 144.201 126.425 144.242C127.663 144.293 128.904 144.235 130.132 144.067C132.35 143.777 134.516 143.173 136.563 142.272C138.282 141.504 139.906 140.539 141.401 139.395L141.85 139.058L141.514 139.507L141.473 139.395L152.132 141.962Z" fill="#263238"/>
<path d="M120.348 120.769C120.345 121.244 120.202 121.707 119.937 122.1C119.671 122.493 119.295 122.799 118.856 122.978C118.416 123.158 117.934 123.203 117.469 123.109C117.004 123.014 116.577 122.784 116.243 122.447C115.909 122.11 115.682 121.682 115.591 121.216C115.499 120.751 115.548 120.268 115.731 119.831C115.914 119.393 116.223 119.019 116.618 118.756C117.013 118.493 117.477 118.354 117.951 118.354C118.268 118.354 118.581 118.417 118.873 118.539C119.165 118.66 119.43 118.838 119.653 119.063C119.875 119.287 120.051 119.554 120.171 119.846C120.29 120.139 120.35 120.453 120.348 120.769Z" fill="#263238"/>
<path d="M129.943 120.769C129.94 121.244 129.797 121.707 129.531 122.1C129.266 122.493 128.89 122.799 128.45 122.978C128.011 123.158 127.528 123.203 127.063 123.109C126.598 123.014 126.172 122.784 125.838 122.447C125.503 122.11 125.276 121.682 125.185 121.216C125.094 120.751 125.143 120.268 125.326 119.831C125.509 119.393 125.817 119.019 126.212 118.756C126.608 118.493 127.072 118.354 127.546 118.354C127.862 118.354 128.176 118.417 128.468 118.539C128.759 118.66 129.024 118.838 129.247 119.063C129.47 119.287 129.646 119.554 129.766 119.846C129.885 120.139 129.945 120.453 129.943 120.769Z" fill="#263238"/>
<path d="M139.516 119.566C139.751 119.979 139.858 120.452 139.824 120.926C139.791 121.399 139.617 121.852 139.326 122.227C139.035 122.602 138.639 122.882 138.188 123.032C137.738 123.182 137.253 123.196 136.795 123.07C136.337 122.945 135.927 122.686 135.615 122.328C135.304 121.969 135.107 121.526 135.047 121.055C134.988 120.584 135.069 120.106 135.282 119.681C135.494 119.256 135.827 118.904 136.24 118.669C136.514 118.512 136.816 118.41 137.129 118.371C137.442 118.331 137.76 118.353 138.064 118.437C138.369 118.52 138.654 118.663 138.903 118.857C139.152 119.051 139.36 119.292 139.516 119.566Z" fill="#263238"/>
<path d="M151.716 348.417C148.916 348.417 146.78 347.729 145.308 346.353C143.836 344.977 143.1 343.033 143.1 340.521C143.1 337.929 143.82 335.945 145.26 334.569C146.7 333.177 148.844 332.481 151.692 332.481C152.652 332.481 153.508 332.553 154.26 332.697C155.012 332.841 155.732 333.041 156.42 333.297V337.233C155.044 336.625 153.572 336.321 152.004 336.321C150.548 336.321 149.468 336.657 148.764 337.329C148.06 337.985 147.708 339.049 147.708 340.521C147.708 341.961 148.076 343.001 148.812 343.641C149.564 344.265 150.644 344.577 152.052 344.577C152.82 344.577 153.564 344.505 154.284 344.361C155.02 344.217 155.748 343.993 156.468 343.689V347.649C155.78 347.889 155.052 348.073 154.284 348.201C153.532 348.345 152.676 348.417 151.716 348.417ZM158.638 348.177V336.801H162.982L163.102 337.713C163.566 337.441 164.158 337.193 164.878 336.969C165.598 336.745 166.326 336.609 167.062 336.561V339.921C166.646 339.953 166.19 340.009 165.694 340.089C165.214 340.169 164.742 340.273 164.278 340.401C163.83 340.513 163.454 340.641 163.15 340.785V348.177H158.638ZM174.616 348.417C173.288 348.417 172.112 348.201 171.088 347.769C170.08 347.321 169.288 346.657 168.712 345.777C168.152 344.897 167.872 343.809 167.872 342.513C167.872 340.705 168.384 339.265 169.408 338.193C170.432 337.105 171.96 336.561 173.992 336.561C175.848 336.561 177.296 337.033 178.336 337.977C179.392 338.921 179.92 340.209 179.92 341.841V343.833H172.024C172.232 344.441 172.64 344.873 173.248 345.129C173.856 345.385 174.68 345.513 175.72 345.513C176.376 345.513 177.032 345.457 177.688 345.345C178.36 345.217 178.896 345.073 179.297 344.913V347.625C178.176 348.153 176.616 348.417 174.616 348.417ZM172.024 341.385H176.032V340.977C176.032 340.529 175.888 340.161 175.6 339.873C175.328 339.585 174.84 339.441 174.136 339.441C173.352 339.441 172.8 339.609 172.48 339.945C172.176 340.265 172.024 340.745 172.024 341.385ZM185.627 348.417C184.907 348.417 184.235 348.289 183.611 348.033C183.003 347.777 182.515 347.377 182.147 346.833C181.779 346.289 181.595 345.601 181.595 344.769C181.595 343.569 181.995 342.641 182.795 341.985C183.595 341.313 184.803 340.977 186.419 340.977H189.371V340.761C189.371 340.313 189.187 339.985 188.819 339.777C188.451 339.569 187.803 339.465 186.875 339.465C185.563 339.465 184.267 339.665 182.987 340.065V337.353C183.563 337.129 184.283 336.945 185.147 336.801C186.011 336.641 186.891 336.561 187.787 336.561C189.595 336.561 191.027 336.929 192.083 337.665C193.139 338.401 193.667 339.569 193.667 341.169V348.177H189.731L189.515 347.265C189.115 347.617 188.595 347.897 187.955 348.105C187.331 348.313 186.555 348.417 185.627 348.417ZM187.163 345.777C187.675 345.777 188.107 345.689 188.459 345.513C188.827 345.337 189.131 345.121 189.371 344.865V343.449H187.187C186.195 343.449 185.699 343.841 185.699 344.625C185.699 345.393 186.187 345.777 187.163 345.777ZM201.067 348.417C199.547 348.417 198.443 348.033 197.755 347.265C197.067 346.497 196.723 345.457 196.723 344.145V340.137H195.235V336.801H196.723V334.473L201.235 333.393V336.801H203.851L203.683 340.137H201.235V343.809C201.235 344.289 201.355 344.633 201.595 344.841C201.835 345.033 202.203 345.129 202.699 345.129C203.163 345.129 203.635 345.049 204.115 344.889V347.889C203.267 348.241 202.251 348.417 201.067 348.417ZM211.961 348.417C209.689 348.417 208.009 347.913 206.921 346.905C205.849 345.897 205.313 344.425 205.313 342.489C205.313 340.569 205.857 339.105 206.945 338.097C208.033 337.073 209.705 336.561 211.961 336.561C214.233 336.561 215.913 337.073 217.001 338.097C218.105 339.105 218.657 340.569 218.657 342.489C218.657 344.425 218.113 345.897 217.025 346.905C215.937 347.913 214.249 348.417 211.961 348.417ZM211.961 345.129C212.697 345.129 213.225 344.921 213.545 344.505C213.881 344.089 214.049 343.417 214.049 342.489C214.049 341.577 213.881 340.913 213.545 340.497C213.225 340.065 212.697 339.849 211.961 339.849C211.241 339.849 210.721 340.065 210.401 340.497C210.081 340.913 209.921 341.577 209.921 342.489C209.921 343.417 210.081 344.089 210.401 344.505C210.721 344.921 211.241 345.129 211.961 345.129ZM220.827 348.177V336.801H225.171L225.291 337.713C225.755 337.441 226.347 337.193 227.067 336.969C227.787 336.745 228.515 336.609 229.251 336.561V339.921C228.835 339.953 228.379 340.009 227.883 340.089C227.403 340.169 226.931 340.273 226.467 340.401C226.019 340.513 225.643 340.641 225.339 340.785V348.177H220.827Z" fill="white"/>
<defs>
<filter id="filter0_b_545_6009" x="-40" y="-15" width="452" height="487" filterUnits="userSpaceOnUse" color-interpolation-filters="sRGB">
<feFlood flood-opacity="0" result="BackgroundImageFix"/>
<feGaussianBlur in="BackgroundImageFix" stdDeviation="20"/>
<feComposite in2="SourceAlpha" operator="in" result="effect1_backgroundBlur_545_6009"/>
<feBlend mode="normal" in="SourceGraphic" in2="effect1_backgroundBlur_545_6009" result="shape"/>
</filter>
</defs>
</svg>
