<svg width="100" height="100" viewBox="0 0 100 100" fill="none" xmlns="http://www.w3.org/2000/svg">
<g clip-path="url(#clip0_60_2425)">
<path d="M95.0196 3.90625L56 32.8866L63.2157 15.7886L95.0196 3.90625Z" fill="#E2761B" stroke="#E2761B" stroke-linecap="round" stroke-linejoin="round"/>
<path d="M4.94116 3.90625L43.647 33.1612L36.7843 15.7886L4.94116 3.90625Z" fill="#E4761B" stroke="#E4761B" stroke-linecap="round" stroke-linejoin="round"/>
<path d="M80.9804 71.0827L70.5883 87.0043L92.8235 93.1219L99.2157 71.4356L80.9804 71.0827Z" fill="#E4761B" stroke="#E4761B" stroke-linecap="round" stroke-linejoin="round"/>
<path d="M0.823486 71.4356L7.17643 93.1219L29.4117 87.0043L19.0196 71.0827L0.823486 71.4356Z" fill="#E4761B" stroke="#E4761B" stroke-linecap="round" stroke-linejoin="round"/>
<path d="M28.1568 44.1808L21.9607 53.5533L44.0391 54.5337L43.2548 30.8082L28.1568 44.1808Z" fill="#E4761B" stroke="#E4761B" stroke-linecap="round" stroke-linejoin="round"/>
<path d="M71.8039 44.1807L56.5098 30.5337L56 54.5337L78.0392 53.5533L71.8039 44.1807Z" fill="#E4761B" stroke="#E4761B" stroke-linecap="round" stroke-linejoin="round"/>
<path d="M29.4117 87.0043L42.6666 80.5337L31.2157 71.5925L29.4117 87.0043Z" fill="#E4761B" stroke="#E4761B" stroke-linecap="round" stroke-linejoin="round"/>
<path d="M57.2941 80.5337L70.5882 87.0043L68.7451 71.5925L57.2941 80.5337Z" fill="#E4761B" stroke="#E4761B" stroke-linecap="round" stroke-linejoin="round"/>
<path d="M70.5882 87.0043L57.2941 80.5337L58.3529 89.2004L58.2352 92.8474L70.5882 87.0043Z" fill="#D7C1B3" stroke="#D7C1B3" stroke-linecap="round" stroke-linejoin="round"/>
<path d="M29.4117 87.0043L41.7647 92.8474L41.6863 89.2004L42.6666 80.5337L29.4117 87.0043Z" fill="#D7C1B3" stroke="#D7C1B3" stroke-linecap="round" stroke-linejoin="round"/>
<path d="M41.9608 65.867L30.902 62.6121L38.7059 59.0435L41.9608 65.867Z" fill="#233447" stroke="#233447" stroke-linecap="round" stroke-linejoin="round"/>
<path d="M58 65.867L61.2549 59.0435L69.098 62.6121L58 65.867Z" fill="#233447" stroke="#233447" stroke-linecap="round" stroke-linejoin="round"/>
<path d="M29.4118 87.0043L31.2942 71.0828L19.0197 71.4357L29.4118 87.0043Z" fill="#CD6116" stroke="#CD6116" stroke-linecap="round" stroke-linejoin="round"/>
<path d="M68.7059 71.0828L70.5883 87.0043L80.9804 71.4357L68.7059 71.0828Z" fill="#CD6116" stroke="#CD6116" stroke-linecap="round" stroke-linejoin="round"/>
<path d="M78.0392 53.5533L56 54.5337L58.0392 65.8671L61.2941 59.0435L69.1373 62.6122L78.0392 53.5533Z" fill="#CD6116" stroke="#CD6116" stroke-linecap="round" stroke-linejoin="round"/>
<path d="M30.902 62.6122L38.7451 59.0435L41.9608 65.8671L44.0393 54.5337L21.9608 53.5533L30.902 62.6122Z" fill="#CD6116" stroke="#CD6116" stroke-linecap="round" stroke-linejoin="round"/>
<path d="M21.9608 53.5533L31.2157 71.5926L30.902 62.6122L21.9608 53.5533Z" fill="#E4751F" stroke="#E4751F" stroke-linecap="round" stroke-linejoin="round"/>
<path d="M69.1373 62.6122L68.7451 71.5926L78.0392 53.5533L69.1373 62.6122Z" fill="#E4751F" stroke="#E4751F" stroke-linecap="round" stroke-linejoin="round"/>
<path d="M44.0392 54.5338L41.9608 65.8671L44.549 79.2396L45.1373 61.6318L44.0392 54.5338Z" fill="#E4751F" stroke="#E4751F" stroke-linecap="round" stroke-linejoin="round"/>
<path d="M56 54.5338L54.9412 61.5926L55.4118 79.2396L58.0392 65.8671L56 54.5338Z" fill="#E4751F" stroke="#E4751F" stroke-linecap="round" stroke-linejoin="round"/>
<path d="M58.0392 65.867L55.4117 79.2396L57.2941 80.5337L68.7451 71.5925L69.1372 62.6121L58.0392 65.867Z" fill="#F6851B" stroke="#F6851B" stroke-linecap="round" stroke-linejoin="round"/>
<path d="M30.902 62.6121L31.2157 71.5925L42.6667 80.5337L44.549 79.2396L41.9608 65.867L30.902 62.6121Z" fill="#F6851B" stroke="#F6851B" stroke-linecap="round" stroke-linejoin="round"/>
<path d="M58.2353 92.8474L58.3529 89.2004L57.3725 88.3376H42.5882L41.6863 89.2004L41.7647 92.8474L29.4117 87.0043L33.7255 90.5337L42.4706 96.6121H57.4902L66.2745 90.5337L70.5882 87.0043L58.2353 92.8474Z" fill="#C0AD9E" stroke="#C0AD9E" stroke-linecap="round" stroke-linejoin="round"/>
<path d="M57.2941 80.5337L55.4118 79.2396H44.549L42.6667 80.5337L41.6863 89.2003L42.5882 88.3376H57.3726L58.3529 89.2003L57.2941 80.5337Z" fill="#161616" stroke="#161616" stroke-linecap="round" stroke-linejoin="round"/>
<path d="M96.6666 34.769L99.9999 18.769L95.0196 3.90625L57.2941 31.9063L71.8039 44.1808L92.3137 50.1808L96.8627 44.8866L94.9019 43.4749L98.0392 40.6121L95.6078 38.7298L98.7451 36.3376L96.6666 34.769Z" fill="#763D16" stroke="#763D16" stroke-linecap="round" stroke-linejoin="round"/>
<path d="M0 18.769L3.33333 34.769L1.21569 36.3376L4.35294 38.7298L1.96078 40.6121L5.09804 43.4749L3.13726 44.8866L7.64706 50.1808L28.1569 44.1808L42.6667 31.9063L4.94118 3.90625L0 18.769Z" fill="#763D16" stroke="#763D16" stroke-linecap="round" stroke-linejoin="round"/>
<path d="M92.3137 50.1808L71.8039 44.1808L78.0392 53.5533L68.7451 71.5926L80.9804 71.4357H99.2157L92.3137 50.1808Z" fill="#F6851B" stroke="#F6851B" stroke-linecap="round" stroke-linejoin="round"/>
<path d="M28.1568 44.1808L7.64702 50.1808L0.823486 71.4357H19.0196L31.2156 71.5926L21.9607 53.5533L28.1568 44.1808Z" fill="#F6851B" stroke="#F6851B" stroke-linecap="round" stroke-linejoin="round"/>
<path d="M56 54.5337L57.2941 31.9062L63.2549 15.7886H36.7843L42.6667 31.9062L44.0392 54.5337L44.5098 61.6709L44.549 79.2396H55.4118L55.4902 61.6709L56 54.5337Z" fill="#F6851B" stroke="#F6851B" stroke-linecap="round" stroke-linejoin="round"/>
</g>
<defs>
<clipPath id="clip0_60_2425">
<rect width="100" height="100" fill="white"/>
</clipPath>
</defs>
</svg>
