<svg width="20" height="20" viewBox="0 0 20 20" fill="none" xmlns="http://www.w3.org/2000/svg">
<g clip-path="url(#clip0_246_2899)">
<path d="M19.0041 0.78125L11.2002 6.57733L12.6433 3.15772L19.0041 0.78125Z" fill="#E2761B" stroke="#E2761B" stroke-linecap="round" stroke-linejoin="round"/>
<path d="M0.988281 0.78125L8.72946 6.63223L7.35691 3.15772L0.988281 0.78125Z" fill="#E4761B" stroke="#E4761B" stroke-linecap="round" stroke-linejoin="round"/>
<path d="M16.1966 14.2166L14.1182 17.4009L18.5652 18.6244L19.8437 14.2871L16.1966 14.2166Z" fill="#E4761B" stroke="#E4761B" stroke-linecap="round" stroke-linejoin="round"/>
<path d="M0.165039 14.2871L1.43563 18.6244L5.88269 17.4009L3.80426 14.2166L0.165039 14.2871Z" fill="#E4761B" stroke="#E4761B" stroke-linecap="round" stroke-linejoin="round"/>
<path d="M5.63179 8.83613L4.39258 10.7106L8.80826 10.9067L8.6514 6.16162L5.63179 8.83613Z" fill="#E4761B" stroke="#E4761B" stroke-linecap="round" stroke-linejoin="round"/>
<path d="M14.361 8.83616L11.3022 6.10675L11.2002 10.9068L15.608 10.7107L14.361 8.83616Z" fill="#E4761B" stroke="#E4761B" stroke-linecap="round" stroke-linejoin="round"/>
<path d="M5.88281 17.4008L8.53379 16.1067L6.2436 14.3185L5.88281 17.4008Z" fill="#E4761B" stroke="#E4761B" stroke-linecap="round" stroke-linejoin="round"/>
<path d="M11.459 16.1067L14.1178 17.4008L13.7492 14.3185L11.459 16.1067Z" fill="#E4761B" stroke="#E4761B" stroke-linecap="round" stroke-linejoin="round"/>
<path d="M14.1178 17.4009L11.459 16.1068L11.6708 17.8401L11.6472 18.5695L14.1178 17.4009Z" fill="#D7C1B3" stroke="#D7C1B3" stroke-linecap="round" stroke-linejoin="round"/>
<path d="M5.88281 17.4009L8.3534 18.5695L8.33771 17.8401L8.53379 16.1068L5.88281 17.4009Z" fill="#D7C1B3" stroke="#D7C1B3" stroke-linecap="round" stroke-linejoin="round"/>
<path d="M8.39243 13.1734L6.18066 12.5224L7.74145 11.8087L8.39243 13.1734Z" fill="#233447" stroke="#233447" stroke-linecap="round" stroke-linejoin="round"/>
<path d="M11.5996 13.1734L12.2506 11.8087L13.8192 12.5224L11.5996 13.1734Z" fill="#233447" stroke="#233447" stroke-linecap="round" stroke-linejoin="round"/>
<path d="M5.88214 17.4009L6.25861 14.2166L3.80371 14.2871L5.88214 17.4009Z" fill="#CD6116" stroke="#CD6116" stroke-linecap="round" stroke-linejoin="round"/>
<path d="M13.7412 14.2166L14.1177 17.4009L16.1961 14.2871L13.7412 14.2166Z" fill="#CD6116" stroke="#CD6116" stroke-linecap="round" stroke-linejoin="round"/>
<path d="M15.608 10.7107L11.2002 10.9068L11.608 13.1734L12.259 11.8087L13.8276 12.5225L15.608 10.7107Z" fill="#CD6116" stroke="#CD6116" stroke-linecap="round" stroke-linejoin="round"/>
<path d="M6.17984 12.5225L7.74846 11.8087L8.3916 13.1734L8.80729 10.9068L4.3916 10.7107L6.17984 12.5225Z" fill="#CD6116" stroke="#CD6116" stroke-linecap="round" stroke-linejoin="round"/>
<path d="M4.39258 10.7107L6.24356 14.3185L6.18081 12.5225L4.39258 10.7107Z" fill="#E4751F" stroke="#E4751F" stroke-linecap="round" stroke-linejoin="round"/>
<path d="M13.8275 12.5225L13.749 14.3185L15.6078 10.7107L13.8275 12.5225Z" fill="#E4751F" stroke="#E4751F" stroke-linecap="round" stroke-linejoin="round"/>
<path d="M8.80827 10.9068L8.39258 13.1735L8.91022 15.848L9.02787 12.3264L8.80827 10.9068Z" fill="#E4751F" stroke="#E4751F" stroke-linecap="round" stroke-linejoin="round"/>
<path d="M11.2 10.9068L10.9883 12.3186L11.0824 15.848L11.6079 13.1735L11.2 10.9068Z" fill="#E4751F" stroke="#E4751F" stroke-linecap="round" stroke-linejoin="round"/>
<path d="M11.6075 13.1734L11.082 15.8479L11.4585 16.1067L13.7487 14.3185L13.8271 12.5224L11.6075 13.1734Z" fill="#F6851B" stroke="#F6851B" stroke-linecap="round" stroke-linejoin="round"/>
<path d="M6.18066 12.5224L6.24341 14.3185L8.53361 16.1067L8.91008 15.8479L8.39243 13.1734L6.18066 12.5224Z" fill="#F6851B" stroke="#F6851B" stroke-linecap="round" stroke-linejoin="round"/>
<path d="M11.6475 18.5695L11.671 17.8401L11.475 17.6675H8.51811L8.33771 17.8401L8.3534 18.5695L5.88281 17.4009L6.74556 18.1068L8.49458 19.3224H11.4985L13.2554 18.1068L14.1181 17.4009L11.6475 18.5695Z" fill="#C0AD9E" stroke="#C0AD9E" stroke-linecap="round" stroke-linejoin="round"/>
<path d="M11.4585 16.1067L11.082 15.8479H8.90946L8.53299 16.1067L8.33691 17.8401L8.51731 17.6675H11.4742L11.6702 17.8401L11.4585 16.1067Z" fill="#161616" stroke="#161616" stroke-linecap="round" stroke-linejoin="round"/>
<path d="M19.3335 6.9538L20.0002 3.7538L19.0041 0.78125L11.459 6.38125L14.3609 8.83615L18.4629 10.0362L19.3727 8.97733L18.9806 8.69498L19.608 8.12243L19.1217 7.74596L19.7492 7.26753L19.3335 6.9538Z" fill="#763D16" stroke="#763D16" stroke-linecap="round" stroke-linejoin="round"/>
<path d="M0 3.7538L0.666667 6.9538L0.243137 7.26753L0.870588 7.74596L0.392157 8.12243L1.01961 8.69498L0.627451 8.97733L1.52941 10.0362L5.63137 8.83615L8.53333 6.38125L0.988236 0.78125L0 3.7538Z" fill="#763D16" stroke="#763D16" stroke-linecap="round" stroke-linejoin="round"/>
<path d="M18.4627 10.0362L14.3608 8.83618L15.6078 10.7107L13.749 14.3185L16.1961 14.2872H19.8431L18.4627 10.0362Z" fill="#F6851B" stroke="#F6851B" stroke-linecap="round" stroke-linejoin="round"/>
<path d="M5.63171 8.83618L1.52974 10.0362L0.165039 14.2872H3.80426L6.24347 14.3185L4.39249 10.7107L5.63171 8.83618Z" fill="#F6851B" stroke="#F6851B" stroke-linecap="round" stroke-linejoin="round"/>
<path d="M11.1996 10.9067L11.4584 6.38124L12.6506 3.15771H7.35645L8.53292 6.38124L8.80743 10.9067L8.90154 12.3342L8.90939 15.8479H11.0819L11.0976 12.3342L11.1996 10.9067Z" fill="#F6851B" stroke="#F6851B" stroke-linecap="round" stroke-linejoin="round"/>
</g>
<defs>
<clipPath id="clip0_246_2899">
<rect width="20" height="20" fill="white"/>
</clipPath>
</defs>
</svg>
