<svg width="50" height="50" viewBox="0 0 50 50" fill="none" xmlns="http://www.w3.org/2000/svg">
<path d="M18.7501 39.5833H39.5834V35.4167H18.7501V39.5833ZM18.7501 27.0833H31.2501V22.9167H18.7501V27.0833ZM18.7501 10.4167V14.5833H43.7501V10.4167H18.7501ZM10.4167 9.375C10.0062 9.37514 9.59976 9.45613 9.22054 9.61335C8.84133 9.77058 8.49679 10.001 8.20661 10.2913C7.91642 10.5817 7.68628 10.9264 7.52931 11.3057C7.37233 11.685 7.29161 12.0916 7.29175 12.5021C7.29189 12.9126 7.37288 13.3191 7.5301 13.6983C7.68733 14.0775 7.9177 14.422 8.20808 14.7122C8.49846 15.0024 8.84315 15.2326 9.22247 15.3895C9.60179 15.5465 10.0083 15.6272 10.4188 15.6271C11.2479 15.6268 12.0429 15.2972 12.629 14.7108C13.215 14.1243 13.5441 13.3291 13.5438 12.5C13.5436 11.6709 13.2139 10.8759 12.6275 10.2899C12.0411 9.70381 11.2458 9.37472 10.4167 9.375ZM10.4167 21.875C10.0062 21.8751 9.59976 21.9561 9.22054 22.1134C8.84133 22.2706 8.49679 22.501 8.20661 22.7913C7.91642 23.0817 7.68628 23.4264 7.52931 23.8057C7.37233 24.185 7.29161 24.5916 7.29175 25.0021C7.29189 25.4126 7.37288 25.8191 7.5301 26.1983C7.68733 26.5775 7.9177 26.922 8.20808 27.2122C8.49846 27.5024 8.84315 27.7326 9.22247 27.8895C9.60179 28.0465 10.0083 28.1272 10.4188 28.1271C11.2479 28.1268 12.0429 27.7972 12.629 27.2108C13.215 26.6243 13.5441 25.8291 13.5438 25C13.5436 24.1709 13.2139 23.3759 12.6275 22.7899C12.0411 22.2038 11.2458 21.8747 10.4167 21.875ZM10.4167 34.375C10.0062 34.3751 9.59976 34.4561 9.22054 34.6134C8.84133 34.7706 8.49679 35.001 8.20661 35.2913C7.91642 35.5817 7.68628 35.9264 7.52931 36.3057C7.37233 36.685 7.29161 37.0916 7.29175 37.5021C7.29189 37.9126 7.37288 38.3191 7.5301 38.6983C7.68733 39.0775 7.9177 39.422 8.20808 39.7122C8.49846 40.0024 8.84315 40.2326 9.22247 40.3895C9.60179 40.5465 10.0083 40.6272 10.4188 40.6271C11.2479 40.6268 12.0429 40.2972 12.629 39.7108C13.215 39.1243 13.5441 38.3291 13.5438 37.5C13.5436 36.6709 13.2139 35.8759 12.6275 35.2899C12.0411 34.7038 11.2458 34.3747 10.4167 34.375Z" fill="white"/>
</svg>
