<svg width="40" height="37" viewBox="0 0 40 37" fill="none" xmlns="http://www.w3.org/2000/svg">
<path d="M34.5833 35.6667H5.41667C4.3116 35.6667 3.25179 35.2277 2.47039 34.4463C1.68899 33.6649 1.25 32.6051 1.25 31.5V12.75C1.25 11.645 1.68899 10.5852 2.47039 9.80376C3.25179 9.02236 4.3116 8.58337 5.41667 8.58337H34.5833C35.6884 8.58337 36.7482 9.02236 37.5296 9.80376C38.311 10.5852 38.75 11.645 38.75 12.75V31.5C38.75 32.6051 38.311 33.6649 37.5296 34.4463C36.7482 35.2277 35.6884 35.6667 34.5833 35.6667Z" stroke="white" stroke-width="1.875"/>
<path d="M29.375 23.1667C29.0988 23.1667 28.8338 23.057 28.6385 22.8616C28.4431 22.6663 28.3334 22.4013 28.3334 22.125C28.3334 21.8488 28.4431 21.5838 28.6385 21.3885C28.8338 21.1931 29.0988 21.0834 29.375 21.0834C29.6513 21.0834 29.9163 21.1931 30.1116 21.3885C30.307 21.5838 30.4167 21.8488 30.4167 22.125C30.4167 22.4013 30.307 22.6663 30.1116 22.8616C29.9163 23.057 29.6513 23.1667 29.375 23.1667Z" fill="white" stroke="white" stroke-width="1.875" stroke-linecap="round" stroke-linejoin="round"/>
<path d="M32.5 8.58337V5.67295C32.4998 5.03442 32.3529 4.40446 32.0705 3.83174C31.7882 3.25902 31.378 2.75885 30.8716 2.36985C30.3653 1.98086 29.7763 1.71346 29.1501 1.58829C28.524 1.46312 27.8774 1.48353 27.2604 1.64795L4.34375 7.75837C3.45636 7.99485 2.67196 8.51787 2.11248 9.24613C1.553 9.9744 1.2498 10.8671 1.25 11.7855V12.75" stroke="white" stroke-width="1.875"/>
</svg>
