<svg width="30" height="30" viewBox="0 0 30 30" fill="none" xmlns="http://www.w3.org/2000/svg">
<path d="M21.25 11.25V8.75C21.25 7.0924 20.5915 5.50269 19.4194 4.33058C18.2473 3.15848 16.6576 2.5 15 2.5C13.3424 2.5 11.7527 3.15848 10.5806 4.33058C9.40848 5.50269 8.75 7.0924 8.75 8.75V11.25C7.75544 11.25 6.80161 11.6451 6.09835 12.3483C5.39509 13.0516 5 14.0054 5 15V23.75C5 24.7446 5.39509 25.6984 6.09835 26.4017C6.80161 27.1049 7.75544 27.5 8.75 27.5H21.25C22.2446 27.5 23.1984 27.1049 23.9017 26.4017C24.6049 25.6984 25 24.7446 25 23.75V15C25 14.0054 24.6049 13.0516 23.9017 12.3483C23.1984 11.6451 22.2446 11.25 21.25 11.25ZM11.25 8.75C11.25 7.75544 11.6451 6.80161 12.3483 6.09835C13.0516 5.39509 14.0054 5 15 5C15.9946 5 16.9484 5.39509 17.6517 6.09835C18.3549 6.80161 18.75 7.75544 18.75 8.75V11.25H11.25V8.75ZM22.5 23.75C22.5 24.0815 22.3683 24.3995 22.1339 24.6339C21.8995 24.8683 21.5815 25 21.25 25H8.75C8.41848 25 8.10054 24.8683 7.86612 24.6339C7.6317 24.3995 7.5 24.0815 7.5 23.75V15C7.5 14.6685 7.6317 14.3505 7.86612 14.1161C8.10054 13.8817 8.41848 13.75 8.75 13.75H21.25C21.5815 13.75 21.8995 13.8817 22.1339 14.1161C22.3683 14.3505 22.5 14.6685 22.5 15V23.75Z" fill="white"/>
</svg>
