<svg width="50" height="50" viewBox="0 0 50 50" fill="none" xmlns="http://www.w3.org/2000/svg">
<path d="M39.5833 6.25H10.4167C8.11548 6.25 6.25 8.11548 6.25 10.4167V39.5833C6.25 41.8845 8.11548 43.75 10.4167 43.75H39.5833C41.8845 43.75 43.75 41.8845 43.75 39.5833V10.4167C43.75 8.11548 41.8845 6.25 39.5833 6.25Z" stroke="white" stroke-width="2.5" stroke-linecap="round" stroke-linejoin="round"/>
<path d="M18.7499 22.9167C21.0511 22.9167 22.9166 21.0512 22.9166 18.75C22.9166 16.4489 21.0511 14.5834 18.7499 14.5834C16.4487 14.5834 14.5833 16.4489 14.5833 18.75C14.5833 21.0512 16.4487 22.9167 18.7499 22.9167Z" stroke="white" stroke-width="2.5" stroke-linecap="round" stroke-linejoin="round"/>
<path d="M43.75 31.2499L37.3208 24.8208C36.5395 24.0396 35.4798 23.6008 34.375 23.6008C33.2701 23.6008 32.2105 24.0396 31.4292 24.8208L12.5 43.7499" stroke="white" stroke-width="2.5" stroke-linecap="round" stroke-linejoin="round"/>
</svg>
