<svg width="140" height="90" viewBox="0 0 140 90" fill="none" xmlns="http://www.w3.org/2000/svg">
<rect width="140" height="90" rx="2" fill="#252525"/>
<rect x="0.5" y="0.5" width="139" height="89" rx="1.5" stroke="white" stroke-opacity="0.2"/>
<path d="M58.0833 24.0854H81.9173V65.3815H58.0833V24.0854Z" fill="#FF5F00"/>
<path d="M59.5963 44.7334C59.5963 36.3428 63.6822 28.9008 69.9622 24.0853C65.3468 20.5832 59.5207 18.4673 53.1649 18.4673C38.1079 18.4673 25.926 30.2141 25.926 44.7334C25.926 59.2527 38.1079 70.9995 53.1649 70.9995C59.5207 70.9995 65.3468 68.8836 69.9622 65.3815C63.6822 60.639 59.5963 53.1239 59.5963 44.7334Z" fill="#EB001B"/>
<path d="M114.074 44.7334C114.074 59.2527 101.892 70.9995 86.8352 70.9995C80.4794 70.9995 74.6533 68.8836 70.0378 65.3815C76.3936 60.566 80.4038 53.1239 80.4038 44.7334C80.4038 36.3428 76.3179 28.9008 70.0378 24.0853C74.6533 20.5832 80.4794 18.4673 86.8352 18.4673C101.892 18.4673 114.074 30.287 114.074 44.7334Z" fill="#F79E1B"/>
</svg>
