<svg width="51" height="50" viewBox="0 0 51 50" fill="none" xmlns="http://www.w3.org/2000/svg">
<path d="M21.1667 8.33337L29.5001 41.6667M25.3334 25L8.66675 29.1667M8.66675 12.5C8.66675 11.395 9.10573 10.3352 9.88714 9.55376C10.6685 8.77236 11.7283 8.33337 12.8334 8.33337H37.8334C38.9385 8.33337 39.9983 8.77236 40.7797 9.55376C41.5611 10.3352 42.0001 11.395 42.0001 12.5V37.5C42.0001 38.6051 41.5611 39.6649 40.7797 40.4463C39.9983 41.2277 38.9385 41.6667 37.8334 41.6667H12.8334C11.7283 41.6667 10.6685 41.2277 9.88714 40.4463C9.10573 39.6649 8.66675 38.6051 8.66675 37.5V12.5Z" stroke="white" stroke-width="2.5" stroke-linecap="round" stroke-linejoin="round"/>
</svg>
