<svg width="140" height="90" viewBox="0 0 140 90" fill="none" xmlns="http://www.w3.org/2000/svg">
<rect width="140" height="90" rx="2" fill="#1434CB"/>
<rect x="0.5" y="0.5" width="139" height="89" rx="1.5" stroke="black" stroke-opacity="0.2"/>
<path d="M86.4788 27.4301C78.7473 27.4301 71.8381 31.2943 71.8381 38.4339C71.8381 46.6216 84.0919 47.1871 84.0919 51.3004C84.0919 53.0323 82.0336 54.5827 78.5181 54.5827C73.5289 54.5827 69.8 52.4164 69.8 52.4164L68.2045 59.621C68.2045 59.621 72.5001 61.4508 78.2032 61.4508C86.6563 61.4508 93.3078 57.3968 93.3078 50.1352C93.3078 41.4834 81.0029 40.9347 81.0029 37.1169C81.0029 35.7602 82.6926 34.2736 86.198 34.2736C90.1532 34.2736 93.3801 35.8491 93.3801 35.8491L94.9416 28.8907C94.9416 28.8907 91.4305 27.4301 86.4788 27.4301ZM15.7428 27.9552L15.5555 29.0055C15.5555 29.0055 18.8082 29.5796 21.7378 30.7246C25.5098 32.0377 25.7785 32.8021 26.4138 35.1762L33.3364 60.9093H42.6161L56.9122 27.9552H47.6538L38.4676 50.3609L34.7192 31.3688C34.3754 29.1952 32.6341 27.9552 30.5027 27.9552H15.7428ZM60.6352 27.9552L53.3722 60.9093H62.2009L69.4384 27.9552H60.6352ZM109.876 27.9552C107.747 27.9552 106.619 29.0543 105.791 30.9749L92.8568 60.9093H102.115L103.907 55.9202H115.186L116.275 60.9093H124.444L117.318 27.9552H109.876ZM111.08 36.8584L113.824 49.2244H106.472L111.08 36.8584Z" fill="white"/>
</svg>
