<svg width="30" height="30" viewBox="0 0 30 30" fill="none" xmlns="http://www.w3.org/2000/svg">
<path fill-rule="evenodd" clip-rule="evenodd" d="M5 15C5.00018 13.0756 5.55564 11.1921 6.59974 9.57548C7.64383 7.9589 9.1322 6.67793 10.8863 5.88627C12.6403 5.0946 14.5856 4.82588 16.4885 5.11234C18.3915 5.3988 20.1715 6.22828 21.6147 7.50124C23.058 8.7742 24.1033 10.4366 24.6252 12.2889C25.1471 14.1412 25.1235 16.1048 24.5571 17.944C23.9908 19.7832 22.9057 21.4199 21.4322 22.6577C19.9587 23.8956 18.1593 24.6819 16.25 24.9225V17.5H18.75C19.0815 17.5 19.3995 17.3683 19.6339 17.1339C19.8683 16.8995 20 16.5815 20 16.25C20 15.9185 19.8683 15.6005 19.6339 15.3661C19.3995 15.1317 19.0815 15 18.75 15H16.25V12.5C16.25 12.1685 16.3817 11.8505 16.6161 11.6161C16.8505 11.3817 17.1685 11.25 17.5 11.25H18.125C18.4565 11.25 18.7745 11.1183 19.0089 10.8839C19.2433 10.6495 19.375 10.3315 19.375 10C19.375 9.66848 19.2433 9.35054 19.0089 9.11612C18.7745 8.8817 18.4565 8.75 18.125 8.75H17.5C16.5054 8.75 15.5516 9.14509 14.8483 9.84835C14.1451 10.5516 13.75 11.5054 13.75 12.5V15H11.25C10.9185 15 10.6005 15.1317 10.3661 15.3661C10.1317 15.6005 10 15.9185 10 16.25C10 16.5815 10.1317 16.8995 10.3661 17.1339C10.6005 17.3683 10.9185 17.5 11.25 17.5H13.75V24.9225C11.3334 24.6178 9.11102 23.4416 7.5 21.6147C5.88898 19.7878 5.00004 17.4358 5 15ZM15 27.5C21.9037 27.5 27.5 21.9037 27.5 15C27.5 8.09625 21.9037 2.5 15 2.5C8.09625 2.5 2.5 8.09625 2.5 15C2.5 21.9037 8.09625 27.5 15 27.5Z" fill="white" fill-opacity="0.6"/>
</svg>
