<svg width="30" height="30" viewBox="0 0 30 30" fill="none" xmlns="http://www.w3.org/2000/svg">
<path d="M21.25 2.5H8.75C5.29822 2.5 2.5 5.29822 2.5 8.75V21.25C2.5 24.7018 5.29822 27.5 8.75 27.5H21.25C24.7018 27.5 27.5 24.7018 27.5 21.25V8.75C27.5 5.29822 24.7018 2.5 21.25 2.5Z" stroke="white" stroke-opacity="0.6" stroke-width="2.5" stroke-linecap="round" stroke-linejoin="round"/>
<path d="M21.8751 8.125H21.8876M20.0001 14.2125C20.1544 15.2528 19.9767 16.3153 19.4923 17.2488C19.0079 18.1823 18.2416 18.9393 17.3022 19.4121C16.3628 19.8849 15.2982 20.0495 14.2599 19.8824C13.2215 19.7153 12.2623 19.2251 11.5187 18.4815C10.775 17.7378 10.2848 16.7786 10.1177 15.7403C9.95063 14.7019 10.1152 13.6374 10.588 12.698C11.0609 11.7586 11.8179 10.9922 12.7514 10.5078C13.6849 10.0234 14.7473 9.84574 15.7876 10C16.8488 10.1574 17.8312 10.6518 18.5897 11.4104C19.3483 12.1689 19.8428 13.1513 20.0001 14.2125Z" stroke="white" stroke-opacity="0.6" stroke-width="2.5" stroke-linecap="round" stroke-linejoin="round"/>
</svg>
